<?xml version="1.0" encoding="UTF-8"?>
<svg 
  xmlns="http://www.w3.org/2000/svg" 
  viewBox="0 0 1920 126" 
  preserveAspectRatio="xMidYMid meet"
>
  <path 
    d="M0 0 C8.96691425 4.48345712 8.96691425 4.48345712 12.56640625 6.59375 C13.36933105 7.06047119 14.17225586 7.52719238 14.99951172 8.00805664 C15.84529785 8.50039795 16.69108398 8.99273926 17.5625 9.5 C43.74723357 24.57725605 70.77549545 37.68060322 98.87988281 48.76708984 C101.64182672 49.8584683 104.39575042 50.96758964 107.1484375 52.08203125 C135.88051489 63.55002596 166.00033505 71.62094897 196 79 C196.67341431 79.16608765 197.34682861 79.33217529 198.04064941 79.5032959 C244.51882864 90.90896626 292.6052649 97.19516953 340.25 101.1875 C341.63554077 101.30599304 341.63554077 101.30599304 343.04907227 101.42687988 C380.75554877 104.6035975 418.47100263 105.33298318 456.29394531 105.26074219 C462.27473239 105.24940075 468.25534032 105.25610805 474.23612118 105.26761913 C506.53526781 105.32028126 538.73987829 104.58717615 571 103 C571.81603447 102.96006172 572.63206894 102.92012344 573.47283173 102.87897491 C583.46548243 102.38625288 593.45217646 101.81186195 603.4375 101.1875 C604.81176066 101.10289451 606.18602842 101.01840441 607.56030273 100.934021 C636.116138 99.17419586 664.62059335 96.88115552 693.11785889 94.34503174 C696.42301012 94.05128093 699.72830897 93.75932995 703.03371811 93.46850395 C756.49587227 88.76438451 809.87909089 83.40911242 863.21362782 77.42789459 C880.39083996 75.50174567 897.57051539 73.60376222 914.7578125 71.76953125 C915.63028311 71.67641411 916.50275372 71.58329697 917.40166283 71.48735809 C924.51939865 70.72804246 931.63731735 69.97044627 938.75532913 69.21372223 C957.68339531 67.20141602 976.61005086 65.18497577 995.51953125 63.00390625 C996.21747929 62.92346888 996.91542732 62.8430315 997.6345253 62.76015663 C999.04136472 62.59801543 1000.44820156 62.43585174 1001.85503578 62.27366543 C1093.69311861 51.68640558 1185.87920933 42.65471955 1395.28283691 31.09570312 C1397.82893915 31.00602506 1400.37491479 30.91328345 1402.92089844 30.8203125 C1465.53900949 28.59060792 1528.4081514 29.36949104 1591 32 C1591.94103577 32.03867187 1592.88207153 32.07734375 1593.85162354 32.1171875 C1605.24591543 32.58801949 1616.62294866 33.21777065 1628 34 C1628.92870911 34.06338562 1629.85741821 34.12677124 1630.81427002 34.19207764 C1715.07847838 39.97708455 1798.69536709 50.83362264 1881.375 68.1875 C1882.12199158 68.34394989 1882.86898315 68.50039978 1883.63861084 68.66159058 C1895.81702505 71.22292507 1907.88783298 74.11615071 1920 77 C1920 93.17 1920 109.34 1920 126 C1286.4 126 652.8 126 0 126 C0 84.42 0 42.84 0 0 Z" 
    fill="#FFFFFF"
  />
</svg>
