<?xml version="1.0" encoding="UTF-8"?>
<svg version="1.1" xmlns="http://www.w3.org/2000/svg" width="586" height="586">
<path d="M0 0 C0.64497887 -0.00145344 1.28995774 -0.00290688 1.95448142 -0.00440437 C4.13652976 -0.00808168 6.318509 -0.00456997 8.50055695 -0.0011425 C10.07240698 -0.00229364 11.64425674 -0.00388111 13.21610594 -0.00586975 C17.55173288 -0.01006411 21.88733796 -0.00797189 26.222965 -0.00488353 C30.89240658 -0.00263009 35.56184428 -0.00610876 40.2312851 -0.00886345 C49.38516056 -0.01332074 58.53902785 -0.01234486 67.69290364 -0.00945081 C75.12943471 -0.00719661 82.56596349 -0.00688432 90.00249481 -0.00797462 C91.05905902 -0.00812786 92.11562323 -0.00828109 93.20420453 -0.00843897 C95.350287 -0.00875868 97.49636947 -0.00908289 99.64245194 -0.00941156 C119.78791431 -0.01226623 139.93337214 -0.00897953 160.07883376 -0.00361119 C177.38172326 0.00085683 194.68460605 0.0000809 211.98749542 -0.00452995 C232.05862492 -0.00987594 252.12975042 -0.01199154 272.20088053 -0.00891769 C274.33927059 -0.00859912 276.47766066 -0.00828475 278.61605072 -0.00797462 C279.66830533 -0.00782035 280.72055994 -0.00766607 281.80470106 -0.00750712 C289.23623387 -0.00664204 296.66776415 -0.00810465 304.09929657 -0.01045418 C313.15019656 -0.01325265 322.20108787 -0.01251292 331.25198686 -0.00717343 C335.87391155 -0.00453706 340.49582175 -0.00353029 345.11774635 -0.00682259 C349.34291367 -0.00978685 353.56805297 -0.00819054 357.79321772 -0.00284503 C359.32750342 -0.00172141 360.86179145 -0.00231084 362.39607567 -0.00472082 C364.47026668 -0.00773073 366.54435977 -0.00467412 368.61854553 0 C369.77408951 0.00016235 370.92963349 0.0003247 372.12019396 0.00049198 C374.80927277 0.12584114 374.80927277 0.12584114 376.80927277 1.12584114 C378.84708101 1.44334668 380.88968066 1.73044265 382.93427277 2.00084114 C388.30144418 2.80621078 392.863749 3.95818984 397.80927277 6.12584114 C399.9756203 7.02244594 402.14230575 7.91823458 404.30927277 8.81334114 C406.14319534 9.58277153 407.97673404 10.35312065 409.80927277 11.12584114 C409.80927277 11.78584114 409.80927277 12.44584114 409.80927277 13.12584114 C410.70388214 13.3849427 411.59849152 13.64404427 412.52021027 13.91099739 C417.8225533 15.86946376 421.56965088 19.46299811 425.80927277 23.12584114 C426.55781525 23.77166145 426.55781525 23.77166145 427.3214798 24.43052864 C440.55882634 35.94198803 440.55882634 35.94198803 444.80927277 43.12584114 C444.80927277 44.11584114 444.80927277 45.10584114 444.80927277 46.12584114 C445.79927277 46.45584114 446.78927277 46.78584114 447.80927277 47.12584114 C452.05469128 53.46696244 455.80927277 60.39806043 455.80927277 68.12584114 C456.46927277 68.12584114 457.12927277 68.12584114 457.80927277 68.12584114 C459.83071316 75.80477194 461.06043716 83.21685657 461.40258026 91.13096809 C461.44227108 91.9931989 461.48196189 92.85542971 461.52285546 93.74378872 C461.97429505 104.59139642 461.9188973 115.43916068 461.87885284 126.29380989 C461.87395735 128.68396092 461.86956577 131.07411302 461.86562824 133.46426582 C461.85636295 138.62765156 461.84415615 143.79101914 461.82987595 148.95439339 C461.80710283 157.3066195 461.79643785 165.65884472 461.78714752 174.01109505 C461.74492077 210.43954625 461.66404176 246.86792196 461.57355785 283.29628181 C461.56459506 286.92387569 461.55568538 290.55146968 461.54682159 294.1790638 C461.54461791 295.08008898 461.54241423 295.98111416 461.54014377 296.90944314 C461.50447395 311.62331794 461.47975088 326.33719243 461.45892575 341.05109489 C461.43713868 356.28211933 461.40410604 371.51308921 461.36057121 386.74406719 C461.33422783 396.07952526 461.31640586 405.41491583 461.30992673 414.75040919 C461.30465722 421.12288058 461.28838844 427.49526585 461.26360711 433.86769098 C461.24967339 437.53165555 461.24039134 441.19546623 461.2442646 444.85945892 C461.2605188 464.40351645 460.91447342 480.46175187 451.80927277 498.12584114 C450.85059436 500.06317042 449.8922299 502.00065511 448.93427277 503.93834114 C448.22804895 505.33524297 447.52059301 506.73152757 446.80927277 508.12584114 C446.14927277 508.12584114 445.48927277 508.12584114 444.80927277 508.12584114 C444.55532745 508.85029427 444.30138214 509.57474739 444.03974152 510.32115364 C439.04197708 521.71288337 426.89623497 532.81333842 415.80927277 538.12584114 C414.90177277 538.74459114 413.99427277 539.36334114 413.05927277 540.00084114 C400.75748384 548.04431851 385.8377506 553.24144958 371.08178711 553.25726891 C370.42734615 553.25932154 369.77290519 553.26137417 369.09863269 553.26348901 C366.90836959 553.26913792 364.71816978 553.26770437 362.5279007 553.26628304 C360.94052639 553.26886789 359.35315273 553.27188139 357.76577997 553.27528644 C353.4053539 553.28334573 349.0449443 553.28514541 344.68451166 553.2858839 C339.98082444 553.28773636 335.27714573 553.29528473 330.57346344 553.30201912 C320.28808395 553.31559604 310.00270836 553.32162635 299.7173214 553.32602978 C293.29251142 553.32879366 286.86770294 553.33303132 280.44289398 553.33753395 C262.64773147 553.3497265 244.85257016 553.36002537 227.05740356 553.36340904 C225.91863822 553.36362861 224.77987287 553.36384817 223.60659948 553.36407439 C222.46513459 553.36429267 221.32366969 553.36451095 220.14761496 553.36473584 C217.83463891 553.3651793 215.52166287 553.36562587 213.20868683 553.36607552 C211.48771891 553.36640766 211.48771891 553.36640766 209.73198396 553.36674652 C191.15054162 553.37069267 172.56913855 553.38814121 153.98771137 553.41143504 C134.90154281 553.43516804 115.81539393 553.44761181 96.72921038 553.44877696 C86.01669457 553.4496927 75.3042299 553.45541945 64.59172821 553.47359657 C55.46769117 553.48902396 46.34372107 553.49410252 37.21967345 553.48585847 C32.56783481 553.48196112 27.91613086 553.48283667 23.26430893 553.49691582 C18.99789569 553.50970988 14.7317176 553.50840926 10.46530443 553.49632511 C8.92957637 553.49437758 7.39383133 553.4974024 5.85812706 553.50616947 C-10.41660988 553.59312636 -24.21355916 550.35118739 -38.69072723 542.93834114 C-39.41775848 542.5703138 -40.14478973 542.20228645 -40.89385223 541.82310677 C-42.66135973 540.92772468 -44.42631962 540.02731639 -46.19072723 539.12584114 C-46.19072723 538.46584114 -46.19072723 537.80584114 -46.19072723 537.12584114 C-46.90873505 536.87705208 -47.62674286 536.62826302 -48.36650848 536.37193489 C-66.98869884 528.15550512 -79.51026631 506.51654081 -86.71025848 488.39537239 C-88.99102585 482.26293449 -90.67932454 476.64622544 -91.19072723 470.12584114 C-91.52072723 469.79584114 -91.85072723 469.46584114 -92.19072723 469.12584114 C-92.29039582 467.09617496 -92.31812898 465.0629743 -92.31936169 463.03086281 C-92.32111472 462.38406984 -92.32286776 461.73727687 -92.32467392 461.07088411 C-92.32937181 458.87657657 -92.32685876 456.6823342 -92.32444 454.48802376 C-92.3263061 452.90965104 -92.32860599 451.33127879 -92.33130533 449.75290728 C-92.33745513 445.39433257 -92.33728601 441.03577695 -92.33611095 436.67719889 C-92.33590773 431.98442758 -92.34141828 427.29166254 -92.34616852 422.59889412 C-92.35449406 413.39507571 -92.35722425 404.1912637 -92.3577809 394.98744184 C-92.35825535 387.50613362 -92.36030657 380.02482752 -92.36348152 372.54351997 C-92.37229487 351.34540711 -92.37690007 330.14729931 -92.37615105 308.9491846 C-92.37611109 307.80510821 -92.37607114 306.66103182 -92.37602997 305.48228645 C-92.37598909 304.33681668 -92.37594821 303.1913469 -92.37590609 302.01116592 C-92.37549988 283.45836992 -92.38506131 264.90559424 -92.39916833 246.35280412 C-92.41352983 227.31540865 -92.42043858 208.27802308 -92.41957456 189.24062204 C-92.41924241 178.54776623 -92.42199698 167.8549317 -92.43275261 157.16208076 C-92.44185483 148.0542579 -92.4440353 138.94646595 -92.43724319 129.83864051 C-92.433976 125.19153548 -92.43392836 120.54448977 -92.44259644 115.89739037 C-92.45045405 111.64095028 -92.44903751 107.3846166 -92.4403123 103.12817913 C-92.43877564 101.59037354 -92.44059976 100.05256004 -92.44617238 98.51476377 C-92.4722949 90.79303161 -92.25964858 83.61273056 -90.19072723 76.12584114 C-90.00252411 75.22736458 -89.81432098 74.32888802 -89.62041473 73.40318489 C-86.63512661 60.81031456 -79.91679521 49.37854215 -72.19072723 39.12584114 C-71.53072723 38.13584114 -70.87072723 37.14584114 -70.19072723 36.12584114 C-69.53072723 36.12584114 -68.87072723 36.12584114 -68.19072723 36.12584114 C-67.85041473 35.04302864 -67.85041473 35.04302864 -67.50322723 33.93834114 C-65.51155862 29.67047984 -62.91977809 26.80941939 -58.50322723 25.06334114 C-56.04635563 24.36884028 -56.04635563 24.36884028 -55.27812958 22.23106575 C-53.992364 19.74180742 -52.85171002 18.95533617 -50.47978973 17.50474739 C-49.73511444 17.04640511 -48.99043915 16.58806282 -48.22319794 16.11583138 C-47.03149994 15.40922371 -47.03149994 15.40922371 -45.81572723 14.68834114 C-45.00514862 14.20115608 -44.19457001 13.71397102 -43.35942841 13.21202278 C-32.93088669 7.05501506 -22.29449173 2.3996526 -10.10869598 1.37193489 C-6.50372323 0.90938238 -3.85212357 0.00054122 0 0 Z " fill="#182224" transform="translate(108.19072723388672,15.87415885925293)"/>
<path d="M0 0 C1.80791016 0.00966797 1.80791016 0.00966797 3.65234375 0.01953125 C5.53373047 0.04466797 5.53373047 0.04466797 7.453125 0.0703125 C8.72285156 0.07933594 9.99257813 0.08835938 11.30078125 0.09765625 C14.43508593 0.12122245 17.56901041 0.15412418 20.703125 0.1953125 C20.703125 0.8553125 20.703125 1.5153125 20.703125 2.1953125 C21.46625 2.4428125 22.229375 2.6903125 23.015625 2.9453125 C26.06954566 4.36574071 26.99257529 5.33291009 28.703125 8.1953125 C29.07493591 10.77539063 29.07493591 10.77539063 29.07202148 13.7265625 C29.07890488 14.83451172 29.08578827 15.94246094 29.09288025 17.08398438 C29.08672195 18.27572266 29.08056366 19.46746094 29.07421875 20.6953125 C29.09159704 23.21614722 29.10918147 25.73698052 29.12695312 28.2578125 C29.13704224 32.23440102 29.14061833 36.21089919 29.13891602 40.1875 C29.14247686 44.02371335 29.16978419 47.85922373 29.19921875 51.6953125 C29.19103622 52.88705078 29.1828537 54.07878906 29.17442322 55.30664062 C29.18947655 56.96856445 29.18947655 56.96856445 29.20483398 58.6640625 C29.20466782 59.63794922 29.20450165 60.61183594 29.20433044 61.61523438 C29.85874259 65.00026422 30.94586193 66.16474944 33.703125 68.1953125 C36.1637378 68.8016818 36.1637378 68.8016818 38.8671875 68.72875977 C39.89505371 68.7445961 40.92291992 68.76043243 41.98193359 68.77674866 C43.08617676 68.77178879 44.19041992 68.76682892 45.328125 68.76171875 C46.46717285 68.76791733 47.6062207 68.77411591 48.77978516 68.78050232 C51.18716578 68.78760383 53.59459548 68.7844208 56.00195312 68.77172852 C59.689719 68.75786291 63.37494849 68.79193274 67.0625 68.83007812 C69.40104229 68.83102929 71.73958776 68.82917065 74.078125 68.82421875 C75.18236816 68.83747696 76.28661133 68.85073517 77.42431641 68.86439514 C83.24773366 68.8242418 83.24773366 68.8242418 88.40478516 66.4230957 C90.46074178 61.3118128 90.18462815 56.37639256 90.1015625 50.921875 C90.10629846 48.46354071 90.11152189 46.00520732 90.1171875 43.546875 C90.10244786 39.68017522 90.0780662 35.81383477 90.04296875 31.94726562 C90.01628184 28.20919176 90.02590709 24.47249012 90.0390625 20.734375 C90.00659927 19.00750961 90.00659927 19.00750961 89.97348022 17.24575806 C90.00522304 12.07446404 90.10301515 8.16910742 93.32910156 3.9675293 C96.46860556 0.93340895 98.94442898 0.30673768 103.3515625 0.30078125 C104.60453125 0.29626953 105.8575 0.29175781 107.1484375 0.28710938 C108.44523437 0.31869141 109.74203125 0.35027344 111.078125 0.3828125 C112.3671875 0.36412109 113.65625 0.34542969 114.984375 0.32617188 C121.70520325 0.3917241 126.58094605 0.68327248 131.97541237 4.91327572 C135.80018407 9.96519786 134.8057319 17.01559837 134.73828125 23.09545898 C134.74912778 24.73031099 134.76337546 26.36514343 134.78076172 27.99993896 C134.81719326 32.43221922 134.80311063 36.86300771 134.77772903 41.2953136 C134.75745043 45.937888 134.77626575 50.58033613 134.78881836 55.22291565 C134.80336757 63.02001841 134.78420848 70.81651474 134.74609375 78.61352539 C134.70257048 87.62080441 134.71664726 96.62663437 134.76070499 105.63387817 C134.79704326 113.37344855 134.80211498 121.11258338 134.78119564 128.85221153 C134.76873971 133.47200737 134.7670136 138.09112278 134.79348755 142.71087456 C134.81664897 147.05602988 134.8004813 151.39932324 134.7543335 155.74427795 C134.743781 157.33613052 134.7467508 158.92814058 134.76443481 160.51992989 C134.8850691 172.48431887 134.8850691 172.48431887 131.9689579 176.70570946 C127.98912153 180.33343802 124.73382027 182.08001599 119.2265625 182.0546875 C118.06125 182.0546875 116.8959375 182.0546875 115.6953125 182.0546875 C114.50164062 182.01859375 113.30796875 181.9825 112.078125 181.9453125 C110.87671875 181.955625 109.6753125 181.9659375 108.4375 181.9765625 C98.7270579 181.84737702 98.7270579 181.84737702 94.9921875 178.8984375 C91.50414432 174.77945136 90.45484782 172.1449548 90.44775391 166.73999023 C90.44079498 165.64883408 90.43383606 164.55767792 90.42666626 163.43345642 C90.42766327 162.26045486 90.42866028 161.08745331 90.4296875 159.87890625 C90.40940676 157.39908396 90.38855614 154.91926628 90.3671875 152.43945312 C90.34453316 148.52640895 90.32809629 144.61354633 90.32226562 140.70043945 C90.31278098 136.92626087 90.27905951 133.15290239 90.2421875 129.37890625 C90.24975571 127.61636757 90.24975571 127.61636757 90.25747681 125.81822205 C90.24421356 124.73021805 90.23095032 123.64221405 90.21728516 122.52124023 C90.21443512 121.5628978 90.21158508 120.60455536 90.20864868 119.61717224 C89.9012836 117.09032518 89.9012836 117.09032518 88.00047302 115.38769531 C85.27581397 113.97352707 83.49449107 113.80917846 80.43139648 113.79125977 C79.38028183 113.77857559 78.32916718 113.76589142 77.24620056 113.75282288 C75.55231956 113.75722633 75.55231956 113.75722633 73.82421875 113.76171875 C72.07879539 113.75385597 72.07879539 113.75385597 70.29811096 113.74583435 C67.83945514 113.73941316 65.3807686 113.74075236 62.92211914 113.74926758 C59.15130277 113.75778837 55.38199522 113.72899738 51.61132812 113.69726562 C49.22395879 113.69565388 46.83658676 113.69623062 44.44921875 113.69921875 C43.31794052 113.68798477 42.18666229 113.67675079 41.02110291 113.66517639 C39.44915916 113.67924782 39.44915916 113.67924782 37.84545898 113.69360352 C36.92264633 113.69376968 35.99983368 113.69393585 35.04905701 113.69410706 C32.59049516 114.00688628 32.59049516 114.00688628 30.90478516 115.89442444 C29.46988175 118.64191682 29.33103832 120.4186737 29.33422852 123.51123047 C29.32734512 124.5726828 29.32046173 125.63413513 29.31336975 126.72775269 C29.31952805 127.8694693 29.32568634 129.01118591 29.33203125 130.1875 C29.31464851 132.60807433 29.29706414 135.02864721 29.27929688 137.44921875 C29.26922255 141.26321063 29.26562804 145.07710864 29.26733398 148.89111328 C29.26376345 152.57352704 29.23641578 156.2552153 29.20703125 159.9375 C29.21521378 161.07516815 29.2233963 162.2128363 29.23182678 163.38497925 C29.16267884 170.74213942 28.19844692 174.73243507 22.83569336 180.04541016 C19.9799377 181.58526238 17.81838129 181.58359485 14.58203125 181.59375 C13.39931641 181.59761719 12.21660156 181.60148438 10.99804688 181.60546875 C9.76634766 181.59386719 8.53464844 181.58226562 7.265625 181.5703125 C5.42387695 181.58771484 5.42387695 181.58771484 3.54492188 181.60546875 C2.36091797 181.60160156 1.17691406 181.59773437 -0.04296875 181.59375 C-1.12247803 181.59036621 -2.2019873 181.58698242 -3.31420898 181.58349609 C-6.76785148 181.13401655 -8.55436678 180.32996171 -11.296875 178.1953125 C-14.27108112 174.1869203 -14.67465518 171.26784146 -14.68455505 166.32568359 C-14.68994059 165.64706961 -14.69532613 164.96845562 -14.70087487 164.26927757 C-14.71514786 162.00224895 -14.70805272 159.73580478 -14.70092773 157.46875 C-14.70663162 155.84067313 -14.71359595 154.21260026 -14.72172546 152.58453369 C-14.7396687 148.16722189 -14.73848648 143.7501086 -14.73278308 139.3327713 C-14.72969333 135.64475002 -14.7357812 131.95676699 -14.74182183 128.26875114 C-14.75586887 119.56910904 -14.75430389 110.86956513 -14.74291992 102.16992188 C-14.73143433 93.19424807 -14.74552132 84.21887291 -14.7723164 75.24323845 C-14.79446334 67.5360955 -14.80111317 59.82904637 -14.79523998 52.12187386 C-14.79186729 47.51906304 -14.79430633 42.91644373 -14.81149101 38.31365967 C-14.82694243 33.98629409 -14.82302488 29.65937158 -14.80418587 25.33202362 C-14.80049516 23.74413895 -14.8036225 22.15622158 -14.81407166 20.568367 C-14.82725117 18.40004615 -14.81576354 16.23319878 -14.79808044 14.06494141 C-14.79787116 12.85190338 -14.79766188 11.63886536 -14.79744625 10.3890686 C-14.19973521 6.57553902 -12.95462901 4.93875658 -10.296875 2.1953125 C-6.96348744 -0.13946158 -4.00148593 -0.03774987 0 0 Z " fill="#EEF6F9" transform="translate(403.296875,201.8046875)"/>
<path d="M0 0 C0.64497887 -0.00145344 1.28995774 -0.00290688 1.95448142 -0.00440437 C4.13652976 -0.00808168 6.318509 -0.00456997 8.50055695 -0.0011425 C10.07240698 -0.00229364 11.64425674 -0.00388111 13.21610594 -0.00586975 C17.55173288 -0.01006411 21.88733796 -0.00797189 26.222965 -0.00488353 C30.89240658 -0.00263009 35.56184428 -0.00610876 40.2312851 -0.00886345 C49.38516056 -0.01332074 58.53902785 -0.01234486 67.69290364 -0.00945081 C75.12943471 -0.00719661 82.56596349 -0.00688432 90.00249481 -0.00797462 C91.05905902 -0.00812786 92.11562323 -0.00828109 93.20420453 -0.00843897 C95.350287 -0.00875868 97.49636947 -0.00908289 99.64245194 -0.00941156 C119.78791431 -0.01226623 139.93337214 -0.00897953 160.07883376 -0.00361119 C177.38172326 0.00085683 194.68460605 0.0000809 211.98749542 -0.00452995 C232.05862492 -0.00987594 252.12975042 -0.01199154 272.20088053 -0.00891769 C274.33927059 -0.00859912 276.47766066 -0.00828475 278.61605072 -0.00797462 C279.66830533 -0.00782035 280.72055994 -0.00766607 281.80470106 -0.00750712 C289.23623387 -0.00664204 296.66776415 -0.00810465 304.09929657 -0.01045418 C313.15019656 -0.01325265 322.20108787 -0.01251292 331.25198686 -0.00717343 C335.87391155 -0.00453706 340.49582175 -0.00353029 345.11774635 -0.00682259 C349.34291367 -0.00978685 353.56805297 -0.00819054 357.79321772 -0.00284503 C359.32750342 -0.00172141 360.86179145 -0.00231084 362.39607567 -0.00472082 C364.47026668 -0.00773073 366.54435977 -0.00467412 368.61854553 0 C369.77408951 0.00016235 370.92963349 0.0003247 372.12019396 0.00049198 C374.80927277 0.12584114 374.80927277 0.12584114 376.80927277 1.12584114 C378.84708101 1.44334668 380.88968066 1.73044265 382.93427277 2.00084114 C388.30144418 2.80621078 392.863749 3.95818984 397.80927277 6.12584114 C399.9756203 7.02244594 402.14230575 7.91823458 404.30927277 8.81334114 C406.14319534 9.58277153 407.97673404 10.35312065 409.80927277 11.12584114 C409.80927277 11.78584114 409.80927277 12.44584114 409.80927277 13.12584114 C410.70388214 13.3849427 411.59849152 13.64404427 412.52021027 13.91099739 C417.8225533 15.86946376 421.56965088 19.46299811 425.80927277 23.12584114 C426.55781525 23.77166145 426.55781525 23.77166145 427.3214798 24.43052864 C440.55882634 35.94198803 440.55882634 35.94198803 444.80927277 43.12584114 C444.80927277 44.11584114 444.80927277 45.10584114 444.80927277 46.12584114 C445.79927277 46.45584114 446.78927277 46.78584114 447.80927277 47.12584114 C452.05469128 53.46696244 455.80927277 60.39806043 455.80927277 68.12584114 C456.46927277 68.12584114 457.12927277 68.12584114 457.80927277 68.12584114 C459.83071316 75.80477194 461.06043716 83.21685657 461.40258026 91.13096809 C461.44227108 91.9931989 461.48196189 92.85542971 461.52285546 93.74378872 C461.97429505 104.59139642 461.9188973 115.43916068 461.87885284 126.29380989 C461.87395735 128.68396092 461.86956577 131.07411302 461.86562824 133.46426582 C461.85636295 138.62765156 461.84415615 143.79101914 461.82987595 148.95439339 C461.80710283 157.3066195 461.79643785 165.65884472 461.78714752 174.01109505 C461.74492077 210.43954625 461.66404176 246.86792196 461.57355785 283.29628181 C461.56459506 286.92387569 461.55568538 290.55146968 461.54682159 294.1790638 C461.54461791 295.08008898 461.54241423 295.98111416 461.54014377 296.90944314 C461.50447395 311.62331794 461.47975088 326.33719243 461.45892575 341.05109489 C461.43713868 356.28211933 461.40410604 371.51308921 461.36057121 386.74406719 C461.33422783 396.07952526 461.31640586 405.41491583 461.30992673 414.75040919 C461.30465722 421.12288058 461.28838844 427.49526585 461.26360711 433.86769098 C461.24967339 437.53165555 461.24039134 441.19546623 461.2442646 444.85945892 C461.2605188 464.40351645 460.91447342 480.46175187 451.80927277 498.12584114 C450.85059436 500.06317042 449.8922299 502.00065511 448.93427277 503.93834114 C448.22804895 505.33524297 447.52059301 506.73152757 446.80927277 508.12584114 C446.14927277 508.12584114 445.48927277 508.12584114 444.80927277 508.12584114 C444.55532745 508.85029427 444.30138214 509.57474739 444.03974152 510.32115364 C439.04197708 521.71288337 426.89623497 532.81333842 415.80927277 538.12584114 C414.90177277 538.74459114 413.99427277 539.36334114 413.05927277 540.00084114 C400.75748384 548.04431851 385.8377506 553.24144958 371.08178711 553.25726891 C370.42734615 553.25932154 369.77290519 553.26137417 369.09863269 553.26348901 C366.90836959 553.26913792 364.71816978 553.26770437 362.5279007 553.26628304 C360.94052639 553.26886789 359.35315273 553.27188139 357.76577997 553.27528644 C353.4053539 553.28334573 349.0449443 553.28514541 344.68451166 553.2858839 C339.98082444 553.28773636 335.27714573 553.29528473 330.57346344 553.30201912 C320.28808395 553.31559604 310.00270836 553.32162635 299.7173214 553.32602978 C293.29251142 553.32879366 286.86770294 553.33303132 280.44289398 553.33753395 C262.64773147 553.3497265 244.85257016 553.36002537 227.05740356 553.36340904 C225.91863822 553.36362861 224.77987287 553.36384817 223.60659948 553.36407439 C222.46513459 553.36429267 221.32366969 553.36451095 220.14761496 553.36473584 C217.83463891 553.3651793 215.52166287 553.36562587 213.20868683 553.36607552 C211.48771891 553.36640766 211.48771891 553.36640766 209.73198396 553.36674652 C191.15054162 553.37069267 172.56913855 553.38814121 153.98771137 553.41143504 C134.90154281 553.43516804 115.81539393 553.44761181 96.72921038 553.44877696 C86.01669457 553.4496927 75.3042299 553.45541945 64.59172821 553.47359657 C55.46769117 553.48902396 46.34372107 553.49410252 37.21967345 553.48585847 C32.56783481 553.48196112 27.91613086 553.48283667 23.26430893 553.49691582 C18.99789569 553.50970988 14.7317176 553.50840926 10.46530443 553.49632511 C8.92957637 553.49437758 7.39383133 553.4974024 5.85812706 553.50616947 C-10.41660988 553.59312636 -24.21355916 550.35118739 -38.69072723 542.93834114 C-39.41775848 542.5703138 -40.14478973 542.20228645 -40.89385223 541.82310677 C-42.66135973 540.92772468 -44.42631962 540.02731639 -46.19072723 539.12584114 C-46.19072723 538.46584114 -46.19072723 537.80584114 -46.19072723 537.12584114 C-46.90873505 536.87705208 -47.62674286 536.62826302 -48.36650848 536.37193489 C-66.98869884 528.15550512 -79.51026631 506.51654081 -86.71025848 488.39537239 C-88.99102585 482.26293449 -90.67932454 476.64622544 -91.19072723 470.12584114 C-91.52072723 469.79584114 -91.85072723 469.46584114 -92.19072723 469.12584114 C-92.29039582 467.09617496 -92.31812898 465.0629743 -92.31936169 463.03086281 C-92.32111472 462.38406984 -92.32286776 461.73727687 -92.32467392 461.07088411 C-92.32937181 458.87657657 -92.32685876 456.6823342 -92.32444 454.48802376 C-92.3263061 452.90965104 -92.32860599 451.33127879 -92.33130533 449.75290728 C-92.33745513 445.39433257 -92.33728601 441.03577695 -92.33611095 436.67719889 C-92.33590773 431.98442758 -92.34141828 427.29166254 -92.34616852 422.59889412 C-92.35449406 413.39507571 -92.35722425 404.1912637 -92.3577809 394.98744184 C-92.35825535 387.50613362 -92.36030657 380.02482752 -92.36348152 372.54351997 C-92.37229487 351.34540711 -92.37690007 330.14729931 -92.37615105 308.9491846 C-92.37611109 307.80510821 -92.37607114 306.66103182 -92.37602997 305.48228645 C-92.37598909 304.33681668 -92.37594821 303.1913469 -92.37590609 302.01116592 C-92.37549988 283.45836992 -92.38506131 264.90559424 -92.39916833 246.35280412 C-92.41352983 227.31540865 -92.42043858 208.27802308 -92.41957456 189.24062204 C-92.41924241 178.54776623 -92.42199698 167.8549317 -92.43275261 157.16208076 C-92.44185483 148.0542579 -92.4440353 138.94646595 -92.43724319 129.83864051 C-92.433976 125.19153548 -92.43392836 120.54448977 -92.44259644 115.89739037 C-92.45045405 111.64095028 -92.44903751 107.3846166 -92.4403123 103.12817913 C-92.43877564 101.59037354 -92.44059976 100.05256004 -92.44617238 98.51476377 C-92.4722949 90.79303161 -92.25964858 83.61273056 -90.19072723 76.12584114 C-90.00252411 75.22736458 -89.81432098 74.32888802 -89.62041473 73.40318489 C-86.63512661 60.81031456 -79.91679521 49.37854215 -72.19072723 39.12584114 C-71.53072723 38.13584114 -70.87072723 37.14584114 -70.19072723 36.12584114 C-69.53072723 36.12584114 -68.87072723 36.12584114 -68.19072723 36.12584114 C-67.85041473 35.04302864 -67.85041473 35.04302864 -67.50322723 33.93834114 C-65.51155862 29.67047984 -62.91977809 26.80941939 -58.50322723 25.06334114 C-56.04635563 24.36884028 -56.04635563 24.36884028 -55.27812958 22.23106575 C-53.992364 19.74180742 -52.85171002 18.95533617 -50.47978973 17.50474739 C-49.73511444 17.04640511 -48.99043915 16.58806282 -48.22319794 16.11583138 C-47.03149994 15.40922371 -47.03149994 15.40922371 -45.81572723 14.68834114 C-45.00514862 14.20115608 -44.19457001 13.71397102 -43.35942841 13.21202278 C-32.93088669 7.05501506 -22.29449173 2.3996526 -10.10869598 1.37193489 C-6.50372323 0.90938238 -3.85212357 0.00054122 0 0 Z M-60.5588913 40.62974739 C-76.72024547 59.2289806 -83.69514848 82.22423257 -83.57167816 106.61429024 C-83.5751435 108.126637 -83.5799139 109.63898123 -83.58585989 111.15132028 C-83.59828001 115.26745548 -83.59224087 119.38337963 -83.58290124 123.49951518 C-83.57607357 127.95435744 -83.58661049 132.40916508 -83.594841 136.86400032 C-83.60814273 145.5767838 -83.60531604 154.28948951 -83.59660308 163.00227597 C-83.58981071 170.08988615 -83.58891652 177.17747462 -83.59217453 184.26508713 C-83.59263423 185.27626211 -83.59309393 186.28743709 -83.59356756 187.32925374 C-83.5945268 189.38390237 -83.59549944 191.438551 -83.59648533 193.49319962 C-83.60502937 212.73696346 -83.59522172 231.98068435 -83.57908423 251.22444115 C-83.56569214 267.70372166 -83.56800193 284.18293873 -83.58184052 300.66221809 C-83.59793137 319.83230597 -83.6041948 339.0023562 -83.59500372 358.17244989 C-83.59404816 360.22080536 -83.59310505 362.26916084 -83.59217453 364.31751633 C-83.5917117 365.32514144 -83.59124888 366.33276655 -83.59077203 367.37092575 C-83.58819187 374.43995311 -83.59253223 381.50895641 -83.59961319 388.57798004 C-83.60806788 397.2076214 -83.60566566 405.837181 -83.58977096 414.46681311 C-83.58193971 418.86211326 -83.57870749 423.2572776 -83.58871841 427.65257645 C-84.16816424 458.20368995 -84.16816424 458.20368995 -76.56572723 487.50084114 C-76.22017792 488.32825813 -75.8746286 489.15567513 -75.51860809 490.00816536 C-66.12374864 511.63549811 -48.37264743 528.1999626 -27.19072723 538.12584114 C-22.91085412 539.79426625 -18.6364328 540.99355568 -14.19072723 542.12584114 C-13.2272327 542.39035218 -12.26373816 542.65486322 -11.27104682 542.92738974 C-2.71887999 545.12991478 5.39026463 545.55119088 14.18419647 545.50679207 C15.69639288 545.51025642 17.20858675 545.51502617 18.72077543 545.5209738 C22.84110041 545.53340744 26.96121485 545.52734848 31.08154023 545.51801515 C35.53910767 545.51119313 39.99664034 545.52172163 44.45420074 545.52995491 C53.17413842 545.54326259 61.89399841 545.54042727 70.61393907 545.53171699 C77.70682584 545.52492698 84.79969094 545.52402942 91.89258003 545.52728844 C93.40997882 545.52797799 93.40997882 545.52797799 94.95803213 545.52868146 C97.01348804 545.5296407 99.06894393 545.53061334 101.12439982 545.53159924 C120.37957436 545.54014502 139.63470598 545.53033289 158.88987348 545.51419814 C175.38198968 545.50080588 191.87404249 545.50311563 208.36615753 545.51695442 C227.54721551 545.53304217 246.72823588 545.53931044 265.90929967 545.53011763 C267.95849533 545.52916206 270.007691 545.52821894 272.05688667 545.52728844 C273.06494748 545.52682561 274.07300829 545.52636278 275.1116164 545.52588593 C282.18661233 545.52330485 289.26158425 545.52764816 296.33657646 545.5347271 C304.97249227 545.54317831 313.60832636 545.54078675 322.24423292 545.52488486 C326.64345272 545.51704902 331.04253677 545.51382947 335.44175529 545.52383232 C364.49445602 545.95838484 364.49445602 545.95838484 392.62177277 539.43834114 C393.31279083 539.18487923 394.0038089 538.93141731 394.71576691 538.67027473 C418.18808983 529.64516522 435.64725887 510.75137034 445.80927277 488.12584114 C446.34874542 486.93668098 446.34874542 486.93668098 446.89911652 485.72349739 C454.63454084 466.77900537 453.24773872 445.55347423 453.20144677 425.49535191 C453.1945899 421.09106033 453.20516996 416.68680291 453.21338654 412.28251839 C453.22665571 403.67970947 453.22387684 395.07697952 453.21514861 386.47416764 C453.20834589 379.47677137 453.20746648 372.47939708 453.21072006 365.48199844 C453.21117976 364.48231363 453.21163946 363.48262882 453.21211309 362.45265054 C453.21307236 360.42119184 453.214045 358.38973315 453.21503086 356.35827447 C453.22356467 337.35487267 453.21378203 318.35151445 453.19762976 299.3481198 C453.18422636 283.0755188 453.18655878 266.80298201 453.20038605 250.53038216 C453.21647391 231.5887975 453.22274305 212.64725093 453.21354926 193.7056604 C453.21259371 191.6823963 453.21165059 189.65913219 453.21072006 187.63586807 C453.21002582 186.14301641 453.21002582 186.14301641 453.20931756 184.62000613 C453.20673743 177.63811544 453.21107745 170.6562491 453.21815872 163.67436218 C453.22660956 155.15570438 453.22421866 146.6371294 453.20831649 138.11848097 C453.20048202 133.77997682 453.19725885 129.4416103 453.20726395 125.10310745 C453.47938446 93.89047187 453.47938446 93.89047187 444.80927277 64.12584114 C444.39032745 63.14486458 443.97138214 62.16388802 443.53974152 61.15318489 C435.71706457 44.04248805 422.04177787 30.3845574 405.80927277 21.12584114 C405.03325714 20.67595833 404.25724152 20.22607552 403.45771027 19.76255989 C386.91407073 10.82678134 368.83378764 8.81428186 350.31409454 8.8584156 C348.80103622 8.85466954 347.28797982 8.85006426 345.77492642 8.84468496 C341.65690814 8.83255787 337.53897171 8.83270312 333.42093968 8.83507371 C328.96407296 8.8354845 324.50723158 8.82441801 320.05037689 8.81495857 C311.33393912 8.79840499 302.61752841 8.79285162 293.90107623 8.79173382 C286.81107635 8.7907808 279.72108533 8.7866579 272.63108826 8.78033257 C252.49610684 8.76273673 232.36114668 8.75349127 212.22615752 8.75499351 C211.14257481 8.75507343 210.0589921 8.75515334 208.94257355 8.75523567 C207.31519803 8.75535831 207.31519803 8.75535831 205.65494624 8.75548343 C188.07577441 8.7562962 170.49668828 8.73715656 152.91754124 8.70895894 C134.83454657 8.68018367 116.75159365 8.66642115 98.66857553 8.66814649 C88.52948141 8.66880871 78.3904772 8.6633899 68.25140381 8.64179039 C59.61916247 8.62351753 50.9870518 8.61928128 42.35479942 8.63280924 C37.95755208 8.63930777 33.56055501 8.63956977 29.16333199 8.62210274 C-5.95364234 8.49156226 -35.75195433 13.36159398 -60.5588913 40.62974739 Z " fill="#BDA6FE" transform="translate(108.19072723388672,15.87415885925293)"/>
<path d="M0 0 C1.13953125 0.38542969 2.2790625 0.77085937 3.453125 1.16796875 C15.46229764 5.48289241 26.46494263 11.11884599 32.5 22.9375 C33.63202058 29.87112606 33.90432253 35.92868678 30.3359375 42.1796875 C27.02966949 46.68471935 22.51856841 50.716612 17 52 C10.68479284 52.59373743 5.59235783 52.28962225 0 49 C-0.804375 48.030625 -1.60875 47.06125 -2.4375 46.0625 C-6.32728014 41.41373837 -11.13392828 39.27863128 -17 38 C-20.08013542 37.73678711 -23.15975697 37.72321159 -26.25 37.6875 C-27.07113281 37.65849609 -27.89226562 37.62949219 -28.73828125 37.59960938 C-34.5717009 37.53951868 -39.20132679 38.53551 -44 42 C-46.99957773 46.49936659 -46.55178055 50.73162951 -46 56 C-44.63036121 59.8926576 -43.22433012 61.36413823 -39.578125 63.2578125 C-31.84020158 66.44519546 -23.73911322 68.53443694 -15.68554688 70.76074219 C-9.72413016 72.43158161 -4.11896283 74.36698515 1.52734375 76.921875 C4.30207249 78.13170933 7.11853102 79.07725884 10 80 C10 80.66 10 81.32 10 82 C10.825 82.20625 11.65 82.4125 12.5 82.625 C17.02203433 84.40151349 20.297282 86.89584168 24 90 C24.68578125 90.55429687 25.3715625 91.10859375 26.078125 91.6796875 C32.85638791 97.70768467 38.53917841 108.17914221 39.16113281 117.38500977 C39.2069089 120.44428985 39.23531688 123.50290536 39.25 126.5625 C39.2809375 128.13354492 39.2809375 128.13354492 39.3125 129.73632812 C39.39045986 145.41600471 32.95189198 157.10073351 22.11328125 168.1640625 C13.43345955 176.44191226 2.52834104 180.39397655 -9 183 C-9.75804932 183.1750708 -10.51609863 183.3501416 -11.29711914 183.53051758 C-32.14687793 187.1520591 -56.49091187 184.60964302 -74.62890625 173.37109375 C-81.78923588 168.14926283 -87.67660652 161.67472611 -90 153 C-90.85132715 145.7771612 -90.89181644 139.56065252 -86.4296875 133.5859375 C-82.37191056 129.08468767 -79.23071416 127.32727929 -73.30078125 126.7265625 C-65.9655865 126.47726176 -60.8020876 127.33031179 -55 132 C-53.98501334 133.15703314 -53.00434417 134.34518608 -52.0625 135.5625 C-48.38413309 140.06702418 -44.70223638 141.88592145 -39 143 C-35.45679621 143.33228897 -31.93260221 143.45093601 -28.375 143.5 C-27.48031006 143.51861084 -26.58562012 143.53722168 -25.66381836 143.55639648 C-19.36630845 143.4964202 -15.46600478 142.09535552 -10 139 C-9.34 139 -8.68 139 -8 139 C-6.39116696 135.41904905 -5.63230633 132.42508769 -5.5 128.5 C-5.42265625 127.12328125 -5.42265625 127.12328125 -5.34375 125.71875 C-6.1229705 122.49055079 -7.47423167 121.12098763 -10.10986328 119.15185547 C-13.60834962 117.0198665 -17.33191544 115.659816 -21.1875 114.3125 C-22.46367187 113.85327148 -22.46367187 113.85327148 -23.765625 113.38476562 C-27.98934334 111.9048521 -32.05608711 110.63684421 -36.5 110 C-52.2223338 107.71891257 -69.50697998 100.02030596 -80 88 C-80.86625 87.13375 -81.7325 86.2675 -82.625 85.375 C-90.06776421 76.28102651 -91.19272828 64.03059822 -91.25 52.8125 C-91.270625 51.82185547 -91.29125 50.83121094 -91.3125 49.81054688 C-91.3830703 36.35808329 -86.54902159 24.4848819 -77.1875 14.6875 C-69.89756237 7.93131503 -62.34290405 3.31319791 -53 0 C-51.75476563 -0.51240234 -51.75476563 -0.51240234 -50.484375 -1.03515625 C-35.01157329 -7.04424748 -15.33429648 -5.42353574 0 0 Z " fill="#EEF6F8" transform="translate(332,202)"/>
<path d="M0 0 C1.34375 2.0390625 1.34375 2.0390625 2.5 4.625 C3.96125097 7.80084577 5.43992801 10.79887947 7.3125 13.75 C9.10212545 17.19668606 9.37268561 19.17997252 9 23 C9.66 23 10.32 23 11 23 C11.495 24.98 11.495 24.98 12 27 C12.66 27 13.32 27 14 27 C14.4021875 27.94746094 14.4021875 27.94746094 14.8125 28.9140625 C17.82357682 35.78803391 21.31558305 42.19440874 25.1328125 48.640625 C27.02506543 52.0450968 28.49936787 55.41025255 30 59 C30.38542969 59.72445312 30.77085937 60.44890625 31.16796875 61.1953125 C34.89452915 68.24864905 35.37525836 75.8852751 33.3046875 83.5859375 C30.15446602 91.34236518 25.46459716 96.81093225 17.83203125 100.2734375 C8.74561758 103.87700454 -0.26487671 102.46352028 -9.1484375 98.97265625 C-16.81720176 93.66755221 -20.68854602 85.20618845 -24.4375 76.9375 C-25.38570925 74.90317499 -26.33493369 72.86932288 -27.28515625 70.8359375 C-27.74422363 69.84561523 -28.20329102 68.85529297 -28.67626953 67.83496094 C-30.52141127 63.88332208 -32.42843778 59.9650509 -34.375 56.0625 C-34.85864014 55.09280273 -34.85864014 55.09280273 -35.35205078 54.10351562 C-37.32146791 50.20796525 -39.41304007 46.46343296 -41.89453125 42.87109375 C-43 41 -43 41 -44.31640625 37.8359375 C-46.17956791 33.37885846 -48.63794021 29.31945956 -51.125 25.1875 C-52.02390178 23.68126656 -52.9223609 22.17476884 -53.8203125 20.66796875 C-54.21492676 20.01078857 -54.60954102 19.3536084 -55.01611328 18.67651367 C-55.72093683 17.47551533 -56.37723628 16.24552744 -57 15 C-7.57050134 -3.70903757 -7.57050134 -3.70903757 0 0 Z " fill="#6550EA" transform="translate(187,280)"/>
<path d="M0 0 C5.57503772 4.30257426 8.54229958 9.40575717 10.72265625 16.01171875 C11.61389366 18.48914656 12.99989814 20.60325771 14.37890625 22.8359375 C14.37890625 23.4959375 14.37890625 24.1559375 14.37890625 24.8359375 C15.03890625 24.8359375 15.69890625 24.8359375 16.37890625 24.8359375 C16.72501953 25.65384766 16.72501953 25.65384766 17.078125 26.48828125 C18.86260626 30.61445334 20.74723315 34.57035272 23.00390625 38.4609375 C24.57168834 41.19499651 25.73344867 43.65478911 26.50390625 46.7109375 C27.43040274 50.01985352 28.05524094 50.54669687 30.37890625 52.8359375 C31.546875 54.80859375 31.546875 54.80859375 32.56640625 56.8984375 C32.91058594 57.59066406 33.25476563 58.28289062 33.609375 58.99609375 C34.37890625 60.8359375 34.37890625 60.8359375 34.37890625 62.8359375 C33.64591309 62.84004639 32.91291992 62.84415527 32.15771484 62.84838867 C9.85422982 63.06582243 -9.85577058 66.1236979 -30.66357422 74.10498047 C-32.53009171 74.80195644 -34.42114471 75.43214486 -36.3125 76.05859375 C-48.9178377 80.35676416 -60.33382942 86.93552876 -71.9206543 93.41894531 C-74.44308127 94.74252963 -76.95742573 95.83256102 -79.62109375 96.8359375 C-79.62109375 97.4959375 -79.62109375 98.1559375 -79.62109375 98.8359375 C-81.60109375 99.3309375 -81.60109375 99.3309375 -83.62109375 99.8359375 C-82.10699504 94.66683706 -79.81511458 90.22000209 -77.24609375 85.5234375 C-73.77873372 79.08238479 -70.58060111 72.6395842 -67.81640625 65.86328125 C-65.31009914 59.93020911 -62.17162317 54.43626269 -58.97875977 48.85473633 C-56.29321352 44.12548994 -53.91317031 39.34589623 -51.734375 34.359375 C-49.28566561 28.80896705 -46.56244815 23.38339234 -43.49609375 18.1484375 C-41.54529243 14.89490571 -41.54529243 14.89490571 -40.30859375 11.3984375 C-37.23911047 4.91841725 -32.52824072 -0.6351789 -25.74609375 -3.2890625 C-16.50957847 -5.66639344 -8.1432662 -5.04953625 0 0 Z " fill="#01C29A" transform="translate(146.62109375,207.1640625)"/>
<path d="M0 0 C-1.17298261 3.97009499 -2.48307689 6.74897431 -5 10 C-5.69040574 11.65697379 -6.3530635 13.3255761 -7 15 C-7.93021881 16.82721552 -8.86068338 18.65430677 -9.79296875 20.48046875 C-11.88643961 24.85033512 -13.69142985 29.34840781 -15.53515625 33.828125 C-16.8157656 36.60107111 -18.18261373 38.58837299 -20 41 C-20.68285833 42.70714582 -21.30493034 44.43945454 -21.875 46.1875 C-23.40466028 50.55220733 -25.17869007 54.4248053 -27.515625 58.40625 C-28.7088958 60.49133371 -29.82763663 62.58166606 -30.921875 64.71875 C-31.43572754 65.71406738 -31.43572754 65.71406738 -31.95996094 66.72949219 C-32.63676367 68.04433242 -33.30705012 69.36255417 -33.96972656 70.68457031 C-37.27459633 77.04419357 -41.74287406 81.42449946 -48 85 C-57.24357549 86.9338024 -66.41044561 87.45265262 -74.77734375 82.609375 C-81.4102111 77.80666613 -85.47597044 72.07870537 -87 64 C-88.30944285 55.06930549 -85.58144661 47.1690982 -80.484375 39.8125 C-74.17714543 32.76658589 -65.18563528 28.49354456 -57 24 C-56.2972998 23.61215332 -55.59459961 23.22430664 -54.87060547 22.82470703 C-48.36000471 19.24642042 -41.83957491 15.91412337 -35 13 C-33.71623066 12.385525 -32.43638834 11.76279257 -31.16015625 11.1328125 C-8.52325415 0 -8.52325415 0 0 0 Z " fill="#01A0AC" transform="translate(129,296)"/>
<path d="M0 0 C0.64497887 -0.00145344 1.28995774 -0.00290688 1.95448142 -0.00440437 C4.13652976 -0.00808168 6.318509 -0.00456997 8.50055695 -0.0011425 C10.07240698 -0.00229364 11.64425674 -0.00388111 13.21610594 -0.00586975 C17.55173288 -0.01006411 21.88733796 -0.00797189 26.222965 -0.00488353 C30.89240658 -0.00263009 35.56184428 -0.00610876 40.2312851 -0.00886345 C49.38516056 -0.01332074 58.53902785 -0.01234486 67.69290364 -0.00945081 C75.12943471 -0.00719661 82.56596349 -0.00688432 90.00249481 -0.00797462 C91.05905902 -0.00812786 92.11562323 -0.00828109 93.20420453 -0.00843897 C95.350287 -0.00875868 97.49636947 -0.00908289 99.64245194 -0.00941156 C119.78791431 -0.01226623 139.93337214 -0.00897953 160.07883376 -0.00361119 C177.38172326 0.00085683 194.68460605 0.0000809 211.98749542 -0.00452995 C232.05862492 -0.00987594 252.12975042 -0.01199154 272.20088053 -0.00891769 C274.33927059 -0.00859912 276.47766066 -0.00828475 278.61605072 -0.00797462 C279.66830533 -0.00782035 280.72055994 -0.00766607 281.80470106 -0.00750712 C289.23623387 -0.00664204 296.66776415 -0.00810465 304.09929657 -0.01045418 C313.15019656 -0.01325265 322.20108787 -0.01251292 331.25198686 -0.00717343 C335.87391155 -0.00453706 340.49582175 -0.00353029 345.11774635 -0.00682259 C349.34291367 -0.00978685 353.56805297 -0.00819054 357.79321772 -0.00284503 C359.32750342 -0.00172141 360.86179145 -0.00231084 362.39607567 -0.00472082 C364.47026668 -0.00773073 366.54435977 -0.00467412 368.61854553 0 C369.77408951 0.00016235 370.92963349 0.0003247 372.12019396 0.00049198 C374.80927277 0.12584114 374.80927277 0.12584114 376.80927277 1.12584114 C378.84708101 1.44334668 380.88968066 1.73044265 382.93427277 2.00084114 C388.30144418 2.80621078 392.863749 3.95818984 397.80927277 6.12584114 C399.9756203 7.02244594 402.14230575 7.91823458 404.30927277 8.81334114 C406.14319534 9.58277153 407.97673404 10.35312065 409.80927277 11.12584114 C409.80927277 11.78584114 409.80927277 12.44584114 409.80927277 13.12584114 C410.70388214 13.3849427 411.59849152 13.64404427 412.52021027 13.91099739 C417.8225533 15.86946376 421.56965088 19.46299811 425.80927277 23.12584114 C426.55781525 23.77166145 426.55781525 23.77166145 427.3214798 24.43052864 C440.55882634 35.94198803 440.55882634 35.94198803 444.80927277 43.12584114 C444.80927277 44.11584114 444.80927277 45.10584114 444.80927277 46.12584114 C445.79927277 46.45584114 446.78927277 46.78584114 447.80927277 47.12584114 C452.05469128 53.46696244 455.80927277 60.39806043 455.80927277 68.12584114 C456.46927277 68.12584114 457.12927277 68.12584114 457.80927277 68.12584114 C459.83071316 75.80477194 461.06043716 83.21685657 461.40258026 91.13096809 C461.44227108 91.9931989 461.48196189 92.85542971 461.52285546 93.74378872 C461.97429505 104.59139642 461.9188973 115.43916068 461.87885284 126.29380989 C461.87395735 128.68396092 461.86956577 131.07411302 461.86562824 133.46426582 C461.85636295 138.62765156 461.84415615 143.79101914 461.82987595 148.95439339 C461.80710283 157.3066195 461.79643785 165.65884472 461.78714752 174.01109505 C461.74492077 210.43954625 461.66404176 246.86792196 461.57355785 283.29628181 C461.56459506 286.92387569 461.55568538 290.55146968 461.54682159 294.1790638 C461.54461791 295.08008898 461.54241423 295.98111416 461.54014377 296.90944314 C461.50447395 311.62331794 461.47975088 326.33719243 461.45892575 341.05109489 C461.43713868 356.28211933 461.40410604 371.51308921 461.36057121 386.74406719 C461.33422783 396.07952526 461.31640586 405.41491583 461.30992673 414.75040919 C461.30465722 421.12288058 461.28838844 427.49526585 461.26360711 433.86769098 C461.24967339 437.53165555 461.24039134 441.19546623 461.2442646 444.85945892 C461.2605188 464.40351645 460.91447342 480.46175187 451.80927277 498.12584114 C450.85059436 500.06317042 449.8922299 502.00065511 448.93427277 503.93834114 C448.22804895 505.33524297 447.52059301 506.73152757 446.80927277 508.12584114 C446.14927277 508.12584114 445.48927277 508.12584114 444.80927277 508.12584114 C444.55532745 508.85029427 444.30138214 509.57474739 444.03974152 510.32115364 C439.04197708 521.71288337 426.89623497 532.81333842 415.80927277 538.12584114 C414.90177277 538.74459114 413.99427277 539.36334114 413.05927277 540.00084114 C400.75748384 548.04431851 385.8377506 553.24144958 371.08178711 553.25726891 C370.42734615 553.25932154 369.77290519 553.26137417 369.09863269 553.26348901 C366.90836959 553.26913792 364.71816978 553.26770437 362.5279007 553.26628304 C360.94052639 553.26886789 359.35315273 553.27188139 357.76577997 553.27528644 C353.4053539 553.28334573 349.0449443 553.28514541 344.68451166 553.2858839 C339.98082444 553.28773636 335.27714573 553.29528473 330.57346344 553.30201912 C320.28808395 553.31559604 310.00270836 553.32162635 299.7173214 553.32602978 C293.29251142 553.32879366 286.86770294 553.33303132 280.44289398 553.33753395 C262.64773147 553.3497265 244.85257016 553.36002537 227.05740356 553.36340904 C225.91863822 553.36362861 224.77987287 553.36384817 223.60659948 553.36407439 C222.46513459 553.36429267 221.32366969 553.36451095 220.14761496 553.36473584 C217.83463891 553.3651793 215.52166287 553.36562587 213.20868683 553.36607552 C211.48771891 553.36640766 211.48771891 553.36640766 209.73198396 553.36674652 C191.15054162 553.37069267 172.56913855 553.38814121 153.98771137 553.41143504 C134.90154281 553.43516804 115.81539393 553.44761181 96.72921038 553.44877696 C86.01669457 553.4496927 75.3042299 553.45541945 64.59172821 553.47359657 C55.46769117 553.48902396 46.34372107 553.49410252 37.21967345 553.48585847 C32.56783481 553.48196112 27.91613086 553.48283667 23.26430893 553.49691582 C18.99789569 553.50970988 14.7317176 553.50840926 10.46530443 553.49632511 C8.92957637 553.49437758 7.39383133 553.4974024 5.85812706 553.50616947 C-10.41660988 553.59312636 -24.21355916 550.35118739 -38.69072723 542.93834114 C-39.41775848 542.5703138 -40.14478973 542.20228645 -40.89385223 541.82310677 C-42.66135973 540.92772468 -44.42631962 540.02731639 -46.19072723 539.12584114 C-46.19072723 538.46584114 -46.19072723 537.80584114 -46.19072723 537.12584114 C-46.90873505 536.87705208 -47.62674286 536.62826302 -48.36650848 536.37193489 C-66.98869884 528.15550512 -79.51026631 506.51654081 -86.71025848 488.39537239 C-88.99102585 482.26293449 -90.67932454 476.64622544 -91.19072723 470.12584114 C-91.52072723 469.79584114 -91.85072723 469.46584114 -92.19072723 469.12584114 C-92.29039582 467.09617496 -92.31812898 465.0629743 -92.31936169 463.03086281 C-92.32111472 462.38406984 -92.32286776 461.73727687 -92.32467392 461.07088411 C-92.32937181 458.87657657 -92.32685876 456.6823342 -92.32444 454.48802376 C-92.3263061 452.90965104 -92.32860599 451.33127879 -92.33130533 449.75290728 C-92.33745513 445.39433257 -92.33728601 441.03577695 -92.33611095 436.67719889 C-92.33590773 431.98442758 -92.34141828 427.29166254 -92.34616852 422.59889412 C-92.35449406 413.39507571 -92.35722425 404.1912637 -92.3577809 394.98744184 C-92.35825535 387.50613362 -92.36030657 380.02482752 -92.36348152 372.54351997 C-92.37229487 351.34540711 -92.37690007 330.14729931 -92.37615105 308.9491846 C-92.37611109 307.80510821 -92.37607114 306.66103182 -92.37602997 305.48228645 C-92.37598909 304.33681668 -92.37594821 303.1913469 -92.37590609 302.01116592 C-92.37549988 283.45836992 -92.38506131 264.90559424 -92.39916833 246.35280412 C-92.41352983 227.31540865 -92.42043858 208.27802308 -92.41957456 189.24062204 C-92.41924241 178.54776623 -92.42199698 167.8549317 -92.43275261 157.16208076 C-92.44185483 148.0542579 -92.4440353 138.94646595 -92.43724319 129.83864051 C-92.433976 125.19153548 -92.43392836 120.54448977 -92.44259644 115.89739037 C-92.45045405 111.64095028 -92.44903751 107.3846166 -92.4403123 103.12817913 C-92.43877564 101.59037354 -92.44059976 100.05256004 -92.44617238 98.51476377 C-92.4722949 90.79303161 -92.25964858 83.61273056 -90.19072723 76.12584114 C-90.00252411 75.22736458 -89.81432098 74.32888802 -89.62041473 73.40318489 C-86.63512661 60.81031456 -79.91679521 49.37854215 -72.19072723 39.12584114 C-71.53072723 38.13584114 -70.87072723 37.14584114 -70.19072723 36.12584114 C-69.53072723 36.12584114 -68.87072723 36.12584114 -68.19072723 36.12584114 C-67.85041473 35.04302864 -67.85041473 35.04302864 -67.50322723 33.93834114 C-65.51155862 29.67047984 -62.91977809 26.80941939 -58.50322723 25.06334114 C-56.04635563 24.36884028 -56.04635563 24.36884028 -55.27812958 22.23106575 C-53.992364 19.74180742 -52.85171002 18.95533617 -50.47978973 17.50474739 C-49.73511444 17.04640511 -48.99043915 16.58806282 -48.22319794 16.11583138 C-47.03149994 15.40922371 -47.03149994 15.40922371 -45.81572723 14.68834114 C-45.00514862 14.20115608 -44.19457001 13.71397102 -43.35942841 13.21202278 C-32.93088669 7.05501506 -22.29449173 2.3996526 -10.10869598 1.37193489 C-6.50372323 0.90938238 -3.85212357 0.00054122 0 0 Z M-63.19072723 32.12584114 C-63.93064911 32.86576302 -64.67057098 33.60568489 -65.43291473 34.36802864 C-80.35522011 50.21934914 -90.29056643 73.00552354 -90.32494831 94.84026241 C-90.32940615 96.1598227 -90.333864 97.47938299 -90.33845693 98.83892995 C-90.33836765 100.29156674 -90.33817783 101.74420352 -90.33789825 103.19684029 C-90.3412004 104.74922867 -90.3449267 106.3016162 -90.34903973 107.85400265 C-90.3590282 112.11323237 -90.36277144 116.372448 -90.36542904 120.63168776 C-90.36934153 125.22841335 -90.37891926 129.82512788 -90.38764191 134.42184639 C-90.40738061 145.52033466 -90.41746965 156.61882381 -90.4263697 167.71732524 C-90.43075721 172.9495131 -90.43612285 178.18169996 -90.44135857 183.41388702 C-90.45836894 200.81704975 -90.47286151 218.22021186 -90.48010731 235.62338161 C-90.48201707 240.13697816 -90.48393742 244.6505747 -90.48589325 249.16417122 C-90.48637699 250.2859435 -90.48686073 251.40771579 -90.48735913 252.56348117 C-90.4956535 270.72184691 -90.52098127 288.88014665 -90.55347393 307.0384836 C-90.58659317 325.69981822 -90.6045605 344.36111937 -90.60775155 363.02248353 C-90.60991224 373.49256337 -90.61859606 383.962547 -90.64421272 394.43259811 C-90.66598633 403.35229403 -90.67393754 412.27187033 -90.66424594 421.19158981 C-90.65972036 425.73663498 -90.66148514 430.28143372 -90.68100739 434.82644463 C-90.81804426 468.6528836 -86.56273463 498.17517982 -61.99932098 523.37974739 C-41.67790179 543.24895141 -16.57143399 552.63874123 11.72878265 552.51352119 C13.28792807 552.51770395 14.84707044 552.52318658 16.40620726 552.52984101 C20.65161264 552.54419106 24.89682216 552.54008389 29.14223778 552.53267419 C33.73610662 552.52791872 38.32993452 552.54047333 42.92378998 552.5506916 C51.90861601 552.56783882 60.89337197 552.56872806 69.87821011 552.5634787 C77.18561322 552.55942797 84.49299573 552.56089126 91.80039787 552.56622696 C93.36381997 552.56734959 93.36381997 552.56734959 94.95882636 552.5684949 C97.07661346 552.57002647 99.19440055 552.57156482 101.31218763 552.57310987 C121.1477119 552.58682029 140.98319666 552.5814076 160.81872001 552.56992466 C178.93852483 552.55999492 197.05822751 552.57293109 215.17801658 552.59685885 C233.813587 552.62128103 252.4491099 552.63084999 271.08469599 552.62420613 C281.53506643 552.62072069 291.98535835 552.62290116 302.43571663 552.64045715 C311.33222826 552.65521822 320.22860608 552.65576375 329.12511519 552.63838624 C333.65792377 552.62990575 338.1904937 552.62765394 342.72328949 552.6430378 C346.88414324 552.65698366 351.04455616 552.65199639 355.20538505 552.63279856 C356.6992014 552.62906829 358.19305392 552.63187318 359.68683777 552.64241021 C387.06251647 552.8215672 412.12911186 542.14792727 431.80927277 523.12584114 C451.34873118 503.44581109 460.14560603 478.04705718 460.06996918 450.66716194 C460.07299362 449.10933269 460.07688456 447.55150493 460.08156174 445.99367976 C460.09181297 441.73348113 460.08966727 437.47336693 460.08538115 433.21316147 C460.08290866 428.61042697 460.09193463 424.00771253 460.09941864 419.40498543 C460.1121536 410.39522937 460.11396079 401.38550314 460.11161838 392.3757396 C460.10983354 385.04962618 460.11158841 377.72352179 460.11584282 370.39740944 C460.11643801 369.35371991 460.1170332 368.31003038 460.11764642 367.2347139 C460.11885821 365.11426347 460.12007234 362.99381305 460.1212888 360.87336263 C460.13215992 340.99694228 460.130004 321.1205389 460.12390395 301.24411759 C460.11873643 283.07678396 460.12998668 264.90950399 460.14900217 246.74218097 C460.1683939 228.07172683 460.17663415 209.40129805 460.17287892 190.73083377 C460.17096874 180.25536061 460.17343646 169.77993309 460.18759346 159.30446815 C460.19952531 150.38547033 460.200892 141.46654624 460.18880329 132.54754737 C460.18292699 128.0009973 460.18178046 123.45458198 460.19380569 118.908041 C460.20470648 114.7380018 460.20151166 110.56820916 460.18754401 106.39818129 C460.18490855 104.8975682 460.18722703 103.39693551 460.19527987 101.89634171 C460.3307132 74.75397683 450.02190523 49.61095152 430.99286652 30.17662239 C405.16471518 4.96539241 374.58085138 1.50108448 340.02670431 1.60294247 C335.43765282 1.61207188 330.8486601 1.59798451 326.25962067 1.58702278 C317.29236268 1.56931641 308.32523927 1.5730422 299.3579762 1.58467335 C292.06449872 1.5937386 284.77105872 1.59491835 277.47757721 1.59057808 C276.43612649 1.58996515 275.39467577 1.58935221 274.32166594 1.58872071 C272.20541071 1.5874417 270.08915548 1.58614484 267.97290027 1.58483034 C248.16878762 1.57344763 228.36474926 1.58650192 208.5606488 1.60803181 C191.59954097 1.62590067 174.63854268 1.62279591 157.67743683 1.60435677 C137.94002514 1.58290916 118.20267841 1.57454606 98.46525669 1.58680582 C96.35716058 1.5880799 94.24906446 1.58933739 92.14096832 1.59057808 C91.10397724 1.59119518 90.06698615 1.59181228 88.9985711 1.59244809 C81.72113072 1.59588933 74.44373186 1.59009919 67.16629791 1.58065987 C58.28710582 1.56939516 49.40805501 1.57257337 40.52887893 1.59378284 C36.00604978 1.60423341 31.48345546 1.60851853 26.96062851 1.59518623 C-8.25790108 1.50011752 -37.44891329 6.38402719 -63.19072723 32.12584114 Z " fill="#F8F6FF" transform="translate(108.19072723388672,15.87415885925293)"/>
<path d="M0 0 C1.34375 2.0390625 1.34375 2.0390625 2.5 4.625 C3.96125097 7.80084577 5.43992801 10.79887947 7.3125 13.75 C9.10212545 17.19668606 9.37268561 19.17997252 9 23 C9.66 23 10.32 23 11 23 C11.495 24.98 11.495 24.98 12 27 C12.66 27 13.32 27 14 27 C14.50660156 28.13888672 14.50660156 28.13888672 15.0234375 29.30078125 C15.46945313 30.29464844 15.91546875 31.28851563 16.375 32.3125 C17.03628906 33.79169922 17.03628906 33.79169922 17.7109375 35.30078125 C18.98242758 38.12745207 18.98242758 38.12745207 21 41 C21.4140625 43.48046875 21.4140625 43.48046875 21.625 46.1875 C21.73714844 47.53908203 21.73714844 47.53908203 21.8515625 48.91796875 C21.90054688 49.60503906 21.94953125 50.29210937 22 51 C16.9673874 52.67082738 13.11154677 51.10438764 8.25 49.625 C0.27696618 47.34256616 -7.19045841 46.34646985 -15.4609375 46.140625 C-18.47162882 46.02099488 -21.07766988 45.66528595 -24 45 C-25.55888557 44.74741461 -27.12160799 44.51720914 -28.6875 44.3125 C-29.45449219 44.20550781 -30.22148437 44.09851563 -31.01171875 43.98828125 C-33.23707107 43.76845311 -33.23707107 43.76845311 -35 46 C-35.66 45.67 -36.32 45.34 -37 45 C-36.4946875 45.88042969 -35.989375 46.76085937 -35.46875 47.66796875 C-34.81194484 48.84083511 -34.15572557 50.01402972 -33.5 51.1875 C-32.8503125 52.33605469 -32.200625 53.48460937 -31.53125 54.66796875 C-30.06830321 57.85137082 -29.63859168 59.57307465 -30 63 C-32.75598005 59.58702161 -34.78320108 55.86925548 -36.8125 52 C-37.16578369 51.33355469 -37.51906738 50.66710937 -37.88305664 49.98046875 C-39.9727011 46.01984704 -41.97860094 42.02723382 -43.9375 38 C-46.99300673 31.80458029 -50.54442703 25.943357 -54.14453125 20.0546875 C-55.14916765 18.40073873 -56.13457053 16.73085894 -57 15 C-7.57050134 -3.70903757 -7.57050134 -3.70903757 0 0 Z " fill="#4179EB" transform="translate(187,280)"/>
<path d="M0 0 C3.31014318 2.86879076 4.00505629 5.73234389 5.15625 9.84375 C6.09077769 12.23198743 7.16566253 13.24925259 9 15 C10.16796875 16.97265625 10.16796875 16.97265625 11.1875 19.0625 C11.53167969 19.75472656 11.87585938 20.44695312 12.23046875 21.16015625 C13 23 13 23 13 25 C12.26700684 25.00410889 11.53401367 25.00821777 10.77880859 25.01245117 C-11.52467643 25.22988493 -31.23467683 28.2877604 -52.04248047 36.26904297 C-53.90899796 36.96601894 -55.80005096 37.59620736 -57.69140625 38.22265625 C-70.29674395 42.52082666 -81.71273567 49.09959126 -93.29956055 55.58300781 C-95.82198752 56.90659213 -98.33633198 57.99662352 -101 59 C-101 59.66 -101 60.32 -101 61 C-102.98 61.495 -102.98 61.495 -105 62 C-103.48607489 56.83149222 -101.19561864 52.38280831 -98.625 47.6875 C-96.09544123 43.02464489 -93.6646493 38.4309627 -91.6875 33.5 C-91.130625 32.345 -90.57375 31.19 -90 30 C-88.67969168 29.61832629 -87.34304396 29.29175641 -86 29 C-83.66515968 27.51606099 -81.45523387 25.90492191 -79.21875 24.27734375 C-77 23 -77 23 -73 23 C-73 22.34 -73 21.68 -73 21 C-62.62642369 16.59225513 -62.62642369 16.59225513 -57 16 C-57 15.34 -57 14.68 -57 14 C-50.28415322 11.72511817 -43.46525089 11.1065131 -36.4375 10.375 C-35.25091797 10.2409375 -34.06433594 10.106875 -32.84179688 9.96875 C-21.46983277 8.7580466 -10.10099724 7.80140758 1 11 C1.495 11.495 1.495 11.495 2 12 C1.44687265 7.97007218 0.8441938 3.97977076 0 0 Z " fill="#017D98" transform="translate(168,245)"/>
<path d="M0 0 C0.66 0 1.32 0 2 0 C4.46698937 5.29713961 6.62687961 10.57788121 8.38671875 16.15234375 C8.97229804 18.06349402 8.97229804 18.06349402 10 20 C10.039992 21.99960012 10.04346799 24.00047242 10 26 C9.36835938 25.7834375 8.73671875 25.566875 8.0859375 25.34375 C-4.30500384 21.48720342 -16.72840136 22.9532761 -29.4375 24.4375 C-30.65115234 24.57220703 -31.86480469 24.70691406 -33.11523438 24.84570312 C-38.75725118 25.47877014 -44.38661875 26.14848561 -50 27 C-50 27.66 -50 28.32 -50 29 C-50.68707031 29.19335938 -51.37414062 29.38671875 -52.08203125 29.5859375 C-53.43361328 29.97652344 -53.43361328 29.97652344 -54.8125 30.375 C-55.70582031 30.63023437 -56.59914063 30.88546875 -57.51953125 31.1484375 C-60.20467896 31.95266661 -60.20467896 31.95266661 -63 34 C-63.99 34 -64.98 34 -66 34 C-66 34.66 -66 35.32 -66 36 C-67.07314453 36.39832031 -67.07314453 36.39832031 -68.16796875 36.8046875 C-71.06904319 38.02914099 -73.63015864 39.47983063 -76.3125 41.125 C-77.19550781 41.66382813 -78.07851562 42.20265625 -78.98828125 42.7578125 C-79.65214844 43.16773438 -80.31601563 43.57765625 -81 44 C-80.55818053 37.71634527 -79.06204957 33.42883742 -75.9375 28 C-75.56044922 27.32066406 -75.18339844 26.64132812 -74.79492188 25.94140625 C-73.8749242 24.28773953 -72.93910161 22.64289303 -72 21 C-71.67 21 -71.34 21 -71 21 C-71 22.65 -71 24.3 -71 26 C-70.01 26 -69.02 26 -68 26 C-68 25.34 -68 24.68 -68 24 C-67.01 24 -66.02 24 -65 24 C-64.67 23.01 -64.34 22.02 -64 21 C-62.09198089 20.49524412 -60.17967013 20.00206995 -58.25048828 19.58544922 C-54.54587056 18.62171812 -51.30723728 16.84378692 -47.9375 15.0625 C-40.08397388 10.98048401 -32.86224545 7.69240867 -24.0625 6.3125 C-23.28326172 6.18294922 -22.50402344 6.05339844 -21.70117188 5.91992188 C-19.80207832 5.6053481 -17.90120644 5.30154118 -16 5 C-16 4.34 -16 3.68 -16 3 C-13.69 3 -11.38 3 -9 3 C-9 2.34 -9 1.68 -9 1 C-6.03 1.33 -3.06 1.66 0 2 C0 1.34 0 0.68 0 0 Z " fill="#019DA0" transform="translate(161,232)"/>
<path d="M0 0 C4.50625145 2.4740204 8.22765032 5.64941511 11 10 C11.73703874 16.42276617 10.73494542 19.75088752 7 25 C3.72181557 28.46030579 0.85457674 29.72634406 -3.9453125 30.09765625 C-8.80246729 29.86680289 -12.09525421 27.95236399 -15.375 24.5 C-18.52248343 19.65771781 -18.91161049 14.62301797 -18 9 C-14.15713922 2.14043093 -7.97678805 -1.6732503 0 0 Z " fill="#604DD2" transform="translate(136,347)"/>
<path d="M0 0 C-1.17298261 3.97009499 -2.48307689 6.74897431 -5 10 C-5.4640625 11.3303125 -5.4640625 11.3303125 -5.9375 12.6875 C-7 15 -7 15 -8.6875 15.75 C-9.450625 15.8325 -10.21375 15.915 -11 16 C-16.02948535 16.3427858 -16.02948535 16.3427858 -20 19 C-21.92165105 19.19879149 -23.84337626 19.39691733 -25.765625 19.58984375 C-30.41560514 20.44342402 -34.67026498 22.67026498 -38 26 C-40.05859375 26.6328125 -40.05859375 26.6328125 -42.4375 27.125 C-43.21996094 27.29257812 -44.00242188 27.46015625 -44.80859375 27.6328125 C-47 28 -47 28 -50 28 C-51.4023627 28.96829806 -52.80343786 29.93856058 -54.1953125 30.921875 C-56.91293887 32.54539205 -59.81113275 33.3479538 -62.8203125 34.28515625 C-67.27285071 35.74539728 -70.84041767 37.53950507 -74 41 C-77 43 -77 43 -81 43 C-81.495 45.475 -81.495 45.475 -82 48 C-82.66 48 -83.32 48 -84 48 C-82.59323364 40.96616819 -77.99031047 36.67611039 -72.203125 32.79492188 C-67.24246018 29.67497619 -62.13579331 26.81931888 -57 24 C-56.2972998 23.61215332 -55.59459961 23.22430664 -54.87060547 22.82470703 C-48.36000471 19.24642042 -41.83957491 15.91412337 -35 13 C-33.71623066 12.385525 -32.43638834 11.76279257 -31.16015625 11.1328125 C-8.52325415 0 -8.52325415 0 0 0 Z " fill="#2363B8" transform="translate(129,296)"/>
<path d="M0 0 C1.265625 1.77734375 1.265625 1.77734375 2.25 3.9375 C2.58515625 4.64777344 2.9203125 5.35804688 3.265625 6.08984375 C4 8 4 8 4 10 C2.02 10.33 0.04 10.66 -2 11 C-2 10.34 -2 9.68 -2 9 C-2.66 9 -3.32 9 -4 9 C-4 9.66 -4 10.32 -4 11 C-8.65921185 13.32960592 -13.81850387 14.10538636 -19 14 C-19.99 13.34 -20.98 12.68 -22 12 C-22.33 12.33 -22.66 12.66 -23 13 C-24.58787288 12.85591524 -26.1711181 12.65938429 -27.75 12.4375 C-31.86354189 11.96286055 -34.21602225 12.21930459 -38 14 C-38.639375 13.814375 -39.27875 13.62875 -39.9375 13.4375 C-43.13687524 12.75884465 -45.15816241 14.55008286 -48 16 C-50.875 16.1875 -50.875 16.1875 -53 16 C-52.67 17.65 -52.34 19.3 -52 21 C-51.34 21 -50.68 21 -50 21 C-50.33 22.32 -50.66 23.64 -51 25 C-52.98 21.7 -54.96 18.4 -57 15 C-7.75267827 -3.6400837 -7.75267827 -3.6400837 0 0 Z " fill="#2282E2" transform="translate(187,280)"/>
<path d="M0 0 C2.74792483 3.40219265 6 7.48464588 6 12 C6.66 12.12375 7.32 12.2475 8 12.375 C11.69698583 13.14520538 15.34005942 14.06950663 19 15 C18.01 17.475 18.01 17.475 17 20 C17.33 19.67 17.66 19.34 18 19 C19 18 19 18 22.37890625 17.90234375 C23.77347077 17.90901631 25.16801743 17.92097468 26.5625 17.9375 C27.27341797 17.94201172 27.98433594 17.94652344 28.71679688 17.95117188 C30.47790013 17.96299136 32.23896036 17.98092737 34 18 C34 17.34 34 16.68 34 16 C36.64 16 39.28 16 42 16 C42 16.66 42 17.32 42 18 C42.66 17.67 43.32 17.34 44 17 C45.99960012 16.960008 48.00047242 16.95653201 50 17 C49.61139184 19.37202385 49.30737569 20.69347107 47.58203125 22.4140625 C46.99808594 22.81367188 46.41414063 23.21328125 45.8125 23.625 C45.24144531 24.02976562 44.67039063 24.43453125 44.08203125 24.8515625 C36.48766867 29.040573 28.0365448 29.24106247 19.734375 27.1953125 C10.32722903 23.76808595 5.81287359 18.07430504 1.5625 9.25 C0.25206429 6.06592005 -0.44979802 3.48593462 0 0 Z " fill="#8A4FF2" transform="translate(164,354)"/>
<path d="M0 0 C0.99 0 1.98 0 3 0 C3 0.66 3 1.32 3 2 C2.37351562 2.12117188 1.74703125 2.24234375 1.1015625 2.3671875 C0.28429687 2.53476562 -0.53296875 2.70234375 -1.375 2.875 C-2.18710938 3.03742188 -2.99921875 3.19984375 -3.8359375 3.3671875 C-6.18673923 3.86658932 -6.18673923 3.86658932 -8 6 C-9.92165105 6.19879149 -11.84337626 6.39691733 -13.765625 6.58984375 C-18.41560514 7.44342402 -22.67026498 9.67026498 -26 13 C-28.05859375 13.6328125 -28.05859375 13.6328125 -30.4375 14.125 C-31.21996094 14.29257812 -32.00242188 14.46015625 -32.80859375 14.6328125 C-35 15 -35 15 -38 15 C-39.4023627 15.96829806 -40.80343786 16.93856058 -42.1953125 17.921875 C-44.91293887 19.54539205 -47.81113275 20.3479538 -50.8203125 21.28515625 C-55.27285071 22.74539728 -58.84041767 24.53950507 -62 28 C-65 30 -65 30 -69 30 C-69.495 32.475 -69.495 32.475 -70 35 C-70.66 35 -71.32 35 -72 35 C-70.71125848 28.55629242 -67.00017202 24.93659952 -62 21 C-57.06482641 17.77203808 -51.93102529 14.87419072 -46.77416992 12.01806641 C-45.14120829 11.08102911 -43.56651066 10.04434044 -42 9 C-34.66909858 7.3551163 -27.48227446 6.87931815 -20 7 C-19.01 6.67 -18.02 6.34 -17 6 C-17 5.34 -17 4.68 -17 4 C-14.03 4 -11.06 4 -8 4 C-8 3.34 -8 2.68 -8 2 C-6.865625 1.855625 -5.73125 1.71125 -4.5625 1.5625 C-1.19222799 1.38828522 -1.19222799 1.38828522 0 0 Z " fill="#0A6DBA" transform="translate(117,309)"/>
<path d="M0 0 C1.265625 1.77734375 1.265625 1.77734375 2.25 3.9375 C2.58515625 4.64777344 2.9203125 5.35804688 3.265625 6.08984375 C4 8 4 8 4 10 C2.02 10.33 0.04 10.66 -2 11 C-2 10.34 -2 9.68 -2 9 C-2.66 9 -3.32 9 -4 9 C-4 8.34 -4 7.68 -4 7 C-7.63 7 -11.26 7 -15 7 C-14.01 6.67 -13.02 6.34 -12 6 C-12 5.34 -12 4.68 -12 4 C-17.88150422 4.14707247 -17.88150422 4.14707247 -23 6.5625 C-26.29668043 8.93198906 -30.06861256 8.22681081 -34 8 C-31.06196134 5.06196134 -27.41378575 4.54194618 -23.5 3.5 C-22.68644043 3.28005371 -21.87288086 3.06010742 -21.03466797 2.83349609 C-4.06826418 -1.6965168 -4.06826418 -1.6965168 0 0 Z " fill="#2C7DDA" transform="translate(187,280)"/>
<path d="M0 0 C4.49213112 2.46626807 8.26090218 5.64234437 11 10 C11.75085268 14.20638975 11.40355927 17.3946611 9 21 C8.97421875 20.16855469 8.9484375 19.33710938 8.921875 18.48046875 C8.86515625 17.39378906 8.8084375 16.30710937 8.75 15.1875 C8.70359375 14.10855469 8.6571875 13.02960938 8.609375 11.91796875 C8.28454108 8.88349656 8.28454108 8.88349656 5.953125 7.23828125 C5.30859375 6.82964844 4.6640625 6.42101562 4 6 C4 5.34 4 4.68 4 4 C2.741875 3.814375 1.48375 3.62875 0.1875 3.4375 C-0.52019531 3.33308594 -1.22789062 3.22867187 -1.95703125 3.12109375 C-4.2025342 2.86095201 -4.2025342 2.86095201 -7 4 C-7.825 4.825 -8.65 5.65 -9.5 6.5 C-12 9 -12 9 -15 10 C-14.79375 10.680625 -14.5875 11.36125 -14.375 12.0625 C-13.89936171 15.78833331 -14.82330851 18.46992554 -16 22 C-18.84033727 17.7394941 -18.8785959 13.9989077 -18 9 C-14.14663807 2.14401838 -7.98486974 -1.67494555 0 0 Z " fill="#504FB3" transform="translate(136,347)"/>
<path d="M0 0 C0.495 0.99 0.495 0.99 1 2 C1.66 2.33 2.32 2.66 3 3 C2 4 2 4 -1.5625 4.0625 C-2.696875 4.041875 -3.83125 4.02125 -5 4 C-5 4.66 -5 5.32 -5 6 C-7.97 6 -10.94 6 -14 6 C-14 6.66 -14 7.32 -14 8 C-17.22817439 10.15211626 -17.88820272 10.20994371 -21.5625 10.0625 C-26.77640799 9.94731794 -31.82679507 10.38361814 -37 11 C-30.64851599 5.86995523 -25.52084024 4.5871124 -17.5625 4.5 C-8.07544269 4.5167997 -8.07544269 4.5167997 0 0 Z " fill="#1169C2" transform="translate(114,307)"/>
<path d="M0 0 C2.74792483 3.40219265 6 7.48464588 6 12 C6.66 12.12375 7.32 12.2475 8 12.375 C11.69698583 13.14520538 15.34005942 14.06950663 19 15 C18.67 15.99 18.34 16.98 18 18 C16.02 18 14.04 18 12 18 C12 18.66 12 19.32 12 20 C12.66 20 13.32 20 14 20 C14 20.99 14 21.98 14 23 C15.65 23.33 17.3 23.66 19 24 C19 24.66 19 25.32 19 26 C13.9650523 24.71199012 11.42649544 22.87735011 8 19 C7.319375 18.2575 6.63875 17.515 5.9375 16.75 C2.47546698 11.83614668 -0.79902796 6.19246666 0 0 Z " fill="#894FEF" transform="translate(164,354)"/>
<path d="M0 0 C0.99 0 1.98 0 3 0 C4 1.66666667 5 3.33333333 6 5 C9.00259517 5.33218192 9.00259517 5.33218192 10.6875 3.5 C11.3371875 2.7575 11.3371875 2.7575 12 2 C12.33 2.99 12.66 3.98 13 5 C13.66 5.33 14.32 5.66 15 6 C15.40729228 8.32156597 15.74438677 10.6568787 16 13 C15.34 13 14.68 13 14 13 C13.67 13.66 13.34 14.32 13 15 C11.68 14.67 10.36 14.34 9 14 C9 14.66 9 15.32 9 16 C8.34 16 7.68 16 7 16 C6.5875 14.989375 6.175 13.97875 5.75 12.9375 C4.60142363 10.23367428 3.30562706 7.71678285 1.8125 5.1875 C0 2 0 2 0 0 Z " fill="#3582E8" transform="translate(137,305)"/>
<path d="M0 0 C0.33 0 0.66 0 1 0 C1 1.65 1 3.3 1 5 C1.99 5.33 2.98 5.66 4 6 C2.7934375 7.36125 2.7934375 7.36125 1.5625 8.75 C-0.49865828 11.20266321 -1.27336475 12.88584894 -2 16 C-3.875 18.0625 -3.875 18.0625 -6 20 C-6.5775 20.5775 -7.155 21.155 -7.75 21.75 C-8.1625 22.1625 -8.575 22.575 -9 23 C-8.55818053 16.71634527 -7.06204957 12.42883742 -3.9375 7 C-3.56044922 6.32066406 -3.18339844 5.64132812 -2.79492188 4.94140625 C-1.8749242 3.28773953 -0.93910161 1.64289303 0 0 Z " fill="#039C86" transform="translate(89,253)"/>
<path d="M0 0 C4.95 0 9.9 0 15 0 C15 0.99 15 1.98 15 3 C15.99 3.33 16.98 3.66 18 4 C17.67 4.99 17.34 5.98 17 7 C20.465 6.505 20.465 6.505 24 6 C23 8 23 8 20.3671875 9.1171875 C16.79521878 10.05368974 13.80884883 10.20018059 10.125 10.125 C8.39636719 10.09792969 8.39636719 10.09792969 6.6328125 10.0703125 C5.76398438 10.04710937 4.89515625 10.02390625 4 10 C4 9.67 4 9.34 4 9 C4.61488281 8.97421875 5.22976562 8.9484375 5.86328125 8.921875 C10.99254591 8.7185352 10.99254591 8.7185352 15.0625 5.9375 C15.371875 5.298125 15.68125 4.65875 16 4 C13.69 4 11.38 4 9 4 C9 3.34 9 2.68 9 2 C6.36 2 3.72 2 1 2 C0.67 1.34 0.34 0.68 0 0 Z " fill="#8851EF" transform="translate(183,372)"/>
<path d="M0 0 C0.99 0 1.98 0 3 0 C3 0.66 3 1.32 3 2 C2.37351563 2.12117188 1.74703125 2.24234375 1.1015625 2.3671875 C0.28429687 2.53476562 -0.53296875 2.70234375 -1.375 2.875 C-2.18710938 3.03742188 -2.99921875 3.19984375 -3.8359375 3.3671875 C-6.18673923 3.86658932 -6.18673923 3.86658932 -8 6 C-9.92165105 6.19879149 -11.84337626 6.39691733 -13.765625 6.58984375 C-18.41560514 7.44342402 -22.67026498 9.67026498 -26 13 C-28.1640625 13.6328125 -28.1640625 13.6328125 -30.625 14.125 C-31.44226563 14.29257812 -32.25953125 14.46015625 -33.1015625 14.6328125 C-34.04128906 14.81457031 -34.04128906 14.81457031 -35 15 C-34 12 -34 12 -32.46875 10.90234375 C-27.41504693 8.42562816 -22.53967107 6.97457176 -17 6 C-17 5.34 -17 4.68 -17 4 C-14.03 4 -11.06 4 -8 4 C-8 3.34 -8 2.68 -8 2 C-6.865625 1.855625 -5.73125 1.71125 -4.5625 1.5625 C-1.19222799 1.38828522 -1.19222799 1.38828522 0 0 Z " fill="#0686BF" transform="translate(117,309)"/>
<path d="M0 0 C0.33 0 0.66 0 1 0 C1.33 2.97 1.66 5.94 2 9 C2.99 9 3.98 9 5 9 C5 9.66 5 10.32 5 11 C-1.75 15 -1.75 15 -4 15 C-4 15.66 -4 16.32 -4 17 C-5.32 17.33 -6.64 17.66 -8 18 C-6.65150163 13.64029169 -4.95092154 9.68658562 -2.875 5.625 C-2.33617188 4.56539063 -1.79734375 3.50578125 -1.2421875 2.4140625 C-0.83226563 1.61742187 -0.42234375 0.82078125 0 0 Z " fill="#097A91" transform="translate(71,289)"/>
<path d="M0 0 C5.94 0.66 11.88 1.32 18 2 C18 2.66 18 3.32 18 4 C17.37351563 3.90460938 16.74703125 3.80921875 16.1015625 3.7109375 C15.28429687 3.60007812 14.46703125 3.48921875 13.625 3.375 C12.40683594 3.20097656 12.40683594 3.20097656 11.1640625 3.0234375 C10.44992188 3.01570313 9.73578125 3.00796875 9 3 C8.34 3.66 7.68 4.32 7 5 C6.34 4.67 5.68 4.34 5 4 C5.5053125 4.88042969 6.010625 5.76085937 6.53125 6.66796875 C7.18805516 7.84083511 7.84427443 9.01402972 8.5 10.1875 C9.1496875 11.33605469 9.799375 12.48460937 10.46875 13.66796875 C11.93169679 16.85137082 12.36140832 18.57307465 12 22 C9.08617528 18.41727841 7.01652091 14.50482084 4.875 10.4375 C4.51535156 9.76525391 4.15570313 9.09300781 3.78515625 8.40039062 C2.31492038 5.62786718 0.99421778 2.98265334 0 0 Z " fill="#5458C9" transform="translate(145,321)"/>
<path d="M0 0 C-5 2.5 -5 2.5 -10 5 C-10.7115625 5.3815625 -11.423125 5.763125 -12.15625 6.15625 C-14.51675381 7.23648056 -16.43589751 7.14245014 -19 7 C-18.67 8.65 -18.34 10.3 -18 12 C-17.34 12 -16.68 12 -16 12 C-16.33 13.32 -16.66 14.64 -17 16 C-18.98 12.7 -20.96 9.4 -23 6 C-19.92130281 4.79906851 -16.83802269 3.61399631 -13.75 2.4375 C-12.87730469 2.09525391 -12.00460938 1.75300781 -11.10546875 1.40039062 C-9.83896484 0.92182617 -9.83896484 0.92182617 -8.546875 0.43359375 C-7.38430176 -0.01415405 -7.38430176 -0.01415405 -6.19824219 -0.47094727 C-3.74031592 -1.06249838 -2.36496292 -0.81266156 0 0 Z " fill="#3280C7" transform="translate(153,289)"/>
<path d="M0 0 C0 0.33 0 0.66 0 1 C-8.58 1.33 -17.16 1.66 -26 2 C-26 2.66 -26 3.32 -26 4 C-29.60993172 5.13480527 -32.9842327 5.10015767 -36.75 5.0625 C-37.92046875 5.05347656 -39.0909375 5.04445313 -40.296875 5.03515625 C-41.18890625 5.02355469 -42.0809375 5.01195312 -43 5 C-31.17758699 -2.88160868 -13.48117114 -0.2965067 0 0 Z " fill="#082832" transform="translate(179,270)"/>
<path d="M0 0 C0.66 0.33 1.32 0.66 2 1 C2 2.32 2 3.64 2 5 C2.66 5 3.32 5 4 5 C4.33 6.32 4.66 7.64 5 9 C5.66 9 6.32 9 7 9 C7.86366822 10.78710586 8.71568594 12.5798465 9.5625 14.375 C10.27599609 15.87160156 10.27599609 15.87160156 11.00390625 17.3984375 C11.33261719 18.25695312 11.66132813 19.11546875 12 20 C11.67 20.66 11.34 21.32 11 22 C10.34 21.34 9.68 20.68 9 20 C9 19.01 9 18.02 9 17 C8.01 17 7.02 17 6 17 C6 15.68 6 14.36 6 13 C5.34 12.67 4.68 12.34 4 12 C2.65724831 11.01268258 1.32267727 10.01405257 0 9 C-0.99 9.495 -0.99 9.495 -2 10 C-1.67 8.35 -1.34 6.7 -1 5 C-0.34 5 0.32 5 1 5 C0.67 3.35 0.34 1.7 0 0 Z " fill="#5170EA" transform="translate(194,298)"/>
<path d="M0 0 C0 1.32 0 2.64 0 4 C-3.41139003 5.09651823 -6.20655581 4.94215473 -9.75 4.5625 C-10.73484375 4.46066406 -11.7196875 4.35882813 -12.734375 4.25390625 C-13.48203125 4.17011719 -14.2296875 4.08632813 -15 4 C-15 2.68 -15 1.36 -15 0 C-4.44191344 -1.33257403 -4.44191344 -1.33257403 0 0 Z " fill="#327EDD" transform="translate(183,287)"/>
<path d="M0 0 C2.75367135 2.22916252 3.89533318 4.74074429 5.171875 8 C5.97367675 10.03229857 5.97367675 10.03229857 7.078125 12 C10.52961963 18.61131366 10.40872884 24.65423451 10 32 C9.67 32 9.34 32 9 32 C8.95101562 31.24074219 8.90203125 30.48148437 8.8515625 29.69921875 C8.77679688 28.70535156 8.70203125 27.71148437 8.625 26.6875 C8.55539063 25.70136719 8.48578125 24.71523438 8.4140625 23.69921875 C8.16134528 20.78471567 8.16134528 20.78471567 6 18 C6 17.01 6 16.02 6 15 C5.34 15 4.68 15 4 15 C3.67 15.99 3.34 16.98 3 18 C1.875 14.25 1.875 14.25 3 12 C2.90276549 10.00978479 2.90276549 10.00978479 2.5625 7.875 C2.376875 6.59625 2.19125 5.3175 2 4 C1.34 4 0.68 4 0 4 C0 2.68 0 1.36 0 0 Z " fill="#504BB6" transform="translate(211,329)"/>
<path d="M0 0 C-1.09068668 3.77545388 -1.9083091 6.47043472 -5 9 C-5 7.35 -5 5.7 -5 4 C-5.99 4.66 -6.98 5.32 -8 6 C-12.87711551 8.04158324 -16.80289838 8.1792104 -22 8 C-18.37630747 4.76523782 -14.43371593 3.6621735 -9.875 2.3125 C-9.14667969 2.08755859 -8.41835937 1.86261719 -7.66796875 1.63085938 C-2.30447378 0 -2.30447378 0 0 0 Z " fill="#2959A4" transform="translate(129,296)"/>
<path d="M0 0 C0 0.66 0 1.32 0 2 C-0.99 2 -1.98 2 -3 2 C-3 2.66 -3 3.32 -3 4 C-4.66279327 5.0064275 -6.32983484 6.00585407 -8 7 C-8.99 8.485 -8.99 8.485 -10 10 C-11.734375 10.87890625 -11.734375 10.87890625 -13.75 11.5625 C-14.45640625 11.80742187 -15.1628125 12.05234375 -15.890625 12.3046875 C-16.58671875 12.53414063 -17.2828125 12.76359375 -18 13 C-19.155 13.391875 -20.31 13.78375 -21.5 14.1875 C-22.325 14.455625 -23.15 14.72375 -24 15 C-20.31670785 10.98759239 -16.65032757 8.39117689 -11.875 5.8125 C-1.34463277 0 -1.34463277 0 0 0 Z " fill="#1D6399" transform="translate(77,318)"/>
<path d="M0 0 C0.99 0 1.98 0 3 0 C3.474375 0.804375 3.94875 1.60875 4.4375 2.4375 C5.2109375 3.7059375 5.2109375 3.7059375 6 5 C6.680625 5.165 7.36125 5.33 8.0625 5.5 C9.0215625 5.7475 9.0215625 5.7475 10 6 C11.25 8.5625 11.25 8.5625 12 11 C11.01 11 10.02 11 9 11 C9 10.01 9 9.02 9 8 C8.34 8 7.68 8 7 8 C7.33 10.64 7.66 13.28 8 16 C7.73445312 15.44570313 7.46890625 14.89140625 7.1953125 14.3203125 C5.40412742 10.84330618 3.30268955 7.56462382 1.2421875 4.2421875 C0 2 0 2 0 0 Z " fill="#377ED3" transform="translate(137,305)"/>
<path d="M0 0 C0 0.33 0 0.66 0 1 C-0.64026123 1.14099121 -1.28052246 1.28198242 -1.94018555 1.42724609 C-4.85694289 2.07212807 -7.77221438 2.72349863 -10.6875 3.375 C-11.69490234 3.59671875 -12.70230469 3.8184375 -13.74023438 4.046875 C-14.71669922 4.26601563 -15.69316406 4.48515625 -16.69921875 4.7109375 C-17.59471436 4.90993652 -18.49020996 5.10893555 -19.4128418 5.31396484 C-22.03931535 5.94728374 -22.03931535 5.94728374 -24.58129883 7.08056641 C-27 8 -27 8 -31 8 C-31 7.34 -31 6.68 -31 6 C-29.68 6 -28.36 6 -27 6 C-26.67 5.01 -26.34 4.02 -26 3 C-25.31035156 2.95101563 -24.62070313 2.90203125 -23.91015625 2.8515625 C-18.4648692 2.41832979 -13.32042874 1.69819313 -8.015625 0.41015625 C-5.32269824 -0.13782303 -2.73641438 -0.14032894 0 0 Z " fill="#107684" transform="translate(153,270)"/>
<path d="M0 0 C0.33 0.66 0.66 1.32 1 2 C0.67 2.99 0.34 3.98 0 5 C-0.90578883 13.09270352 0.66098397 20.2515976 5.37890625 26.9609375 C6.52873773 28.35645946 7.75641885 29.687331 9 31 C8.401875 30.690625 7.80375 30.38125 7.1875 30.0625 C4.91043228 28.89790296 4.91043228 28.89790296 2 28 C1.29788106 26.34795544 0.63028587 24.68076231 0 23 C-0.66 22.67 -1.32 22.34 -2 22 C-2.05401695 19.08308475 -2.09368066 16.16717276 -2.125 13.25 C-2.14175781 12.425 -2.15851562 11.6 -2.17578125 10.75 C-2.18222656 9.95078125 -2.18867187 9.1515625 -2.1953125 8.328125 C-2.20578613 7.5949707 -2.21625977 6.86181641 -2.22705078 6.10644531 C-1.96777544 3.70103924 -1.19225925 2.08748506 0 0 Z " fill="#0B333D" transform="translate(43,345)"/>
<path d="M0 0 C0 0.99 0 1.98 0 3 C-1.98075027 4.36176581 -3.98079663 5.69593116 -6 7 C-6 7.66 -6 8.32 -6 9 C-8.31 9.33 -10.62 9.66 -13 10 C-13.33 11.65 -13.66 13.3 -14 15 C-14.66 15 -15.32 15 -16 15 C-14.71183183 9.96443353 -13.05020169 7.27463115 -9 4 C-6.06503358 2.48819683 -3.07476601 1.19909176 0 0 Z " fill="#0975A2" transform="translate(61,329)"/>
<path d="M0 0 C1.265625 1.77734375 1.265625 1.77734375 2.25 3.9375 C2.58515625 4.64777344 2.9203125 5.35804688 3.265625 6.08984375 C4 8 4 8 4 10 C2.02 10.33 0.04 10.66 -2 11 C-2 10.34 -2 9.68 -2 9 C-2.66 8.67 -3.32 8.34 -4 8 C-3.01 8 -2.02 8 -1 8 C-1 6.02 -1 4.04 -1 2 C-3.97 1.67 -6.94 1.34 -10 1 C-10 0.67 -10 0.34 -10 0 C-3.38797814 -1.35245902 -3.38797814 -1.35245902 0 0 Z " fill="#376DBC" transform="translate(187,280)"/>
<path d="M0 0 C-1 2 -1 2 -3.40625 2.96484375 C-4.4271875 3.28582031 -5.448125 3.60679687 -6.5 3.9375 C-11.06563438 5.38328422 -15.57576043 6.90800152 -20.0625 8.58203125 C-22.36049772 9.07776866 -23.76343443 8.62627323 -26 8 C-22.04634027 6.46681219 -18.08639947 4.95056575 -14.125 3.4375 C-12.99707031 2.99986328 -11.86914062 2.56222656 -10.70703125 2.11132812 C-9.63066406 1.70205078 -8.55429688 1.29277344 -7.4453125 0.87109375 C-6.45031738 0.48880615 -5.45532227 0.10651855 -4.43017578 -0.28735352 C-2 -1 -2 -1 0 0 Z " fill="#0A2A35" transform="translate(124,279)"/>
<path d="M0 0 C1.25999104 3.79920962 0.95996953 7.34676535 0.8125 11.3125 C0.67118768 17.40064459 1.42756253 21.0446835 5 26 C4.67 26.66 4.34 27.32 4 28 C-0.3302862 24.13064062 -1.69522357 19.07547126 -2.2578125 13.3984375 C-2.36050144 8.5427177 -1.90993819 4.5361032 0 0 Z " fill="#107D8D" transform="translate(44,344)"/>
<path d="M0 0 C2.74792483 3.40219265 6 7.48464588 6 12 C6.99 12 7.98 12 9 12 C9.33 14.64 9.66 17.28 10 20 C5.17281164 15.86240998 2.19406751 10.9753328 0 5 C-0.13671875 2.1875 -0.13671875 2.1875 0 0 Z " fill="#7B56D8" transform="translate(164,354)"/>
<path d="M0 0 C-2.91889553 3.28375747 -5.34889562 4.79049372 -9.5 6.1875 C-10.4384375 6.51105469 -11.376875 6.83460938 -12.34375 7.16796875 C-14.55295581 7.85996998 -16.74658795 8.47384955 -19 9 C-18.67 8.01 -18.34 7.02 -18 6 C-16.32083584 5.2098051 -14.63335104 4.43075838 -12.90234375 3.76171875 C-10.75100789 2.9422494 -10.75100789 2.9422494 -7.875 1.3125 C-4.94342242 -0.0258289 -3.17294958 -0.27996614 0 0 Z " fill="#0280BD" transform="translate(81,322)"/>
<path d="M0 0 C2.31 0.33 4.62 0.66 7 1 C7 2.32 7 3.64 7 5 C10.63 5.33 14.26 5.66 18 6 C14.2627739 8.49148407 12.59163295 8.19262892 8.296875 7.6171875 C4.55191202 6.61088792 2.65588749 4.79208685 0 2 C0 1.34 0 0.68 0 0 Z " fill="#5749A9" transform="translate(120,369)"/>
<path d="M0 0 C2.14065191 5.94625532 -0.22990409 12.21768671 -2 18 C-4.81858077 13.77212884 -4.68030098 9.96777924 -4 5 C-2 1.875 -2 1.875 0 0 Z " fill="#4E50BE" transform="translate(122,351)"/>
<path d="M0 0 C-0.53484401 5.34844008 -2.46690767 9.35796103 -5 14 C-6.30660357 9.70272603 -5.6596762 6.39784135 -5 2 C-6.32 1.67 -7.64 1.34 -9 1 C-2.25 0 -2.25 0 0 0 Z " fill="#0F90AC" transform="translate(120,311)"/>
<path d="M0 0 C-3.45484098 1.83997197 -6.9144248 3.67083882 -10.375 5.5 C-11.35984375 6.02464844 -12.3446875 6.54929687 -13.359375 7.08984375 C-14.30039063 7.58613281 -15.24140625 8.08242188 -16.2109375 8.59375 C-17.51490479 9.28500977 -17.51490479 9.28500977 -18.84521484 9.99023438 C-21 11 -21 11 -23 11 C-22.67 10.01 -22.34 9.02 -22 8 C-19.93359375 7.05078125 -19.93359375 7.05078125 -17.4375 6.3125 C-16.61121094 6.06113281 -15.78492187 5.80976563 -14.93359375 5.55078125 C-14.29550781 5.36902344 -13.65742187 5.18726563 -13 5 C-13 4.34 -13 3.68 -13 3 C-11.02 2.67 -9.04 2.34 -7 2 C-7 1.34 -7 0.68 -7 0 C-3.98968256 -0.93423645 -3.13349732 -1.04449911 0 0 Z " fill="#177382" transform="translate(100,287)"/>
<path d="M0 0 C0.66 0.33 1.32 0.66 2 1 C0.71034824 2.37562854 -0.62689293 3.70766393 -2 5 C-2.66 5 -3.32 5 -4 5 C-4.2475 5.61875 -4.495 6.2375 -4.75 6.875 C-6 9 -6 9 -8.0625 10 C-9.0215625 10.495 -9.0215625 10.495 -10 11 C-10.165 11.66 -10.33 12.32 -10.5 13 C-11 15 -11 15 -13.0625 16.25 C-13.701875 16.4975 -14.34125 16.745 -15 17 C-13.68352532 13.11808748 -12.13451896 10.77182225 -9.1875 7.9375 C-8.12595703 6.91462891 -8.12595703 6.91462891 -7.04296875 5.87109375 C-4.77841383 3.79705588 -2.45698086 1.84273564 0 0 Z " fill="#C8D3D4" transform="translate(264,209)"/>
<path d="M0 0 C-2.0103554 2.0103554 -5.73245802 1.86199466 -8.45703125 2.3046875 C-11.06276903 2.84460754 -11.06276903 2.84460754 -13.02734375 4.55859375 C-15.46240453 6.33787578 -16.77681088 6.31867011 -19.75 6.1875 C-20.94882813 6.14689453 -20.94882813 6.14689453 -22.171875 6.10546875 C-22.77515625 6.07066406 -23.3784375 6.03585937 -24 6 C-20.94892911 2.94892911 -17.2174689 2.43648794 -13.125 1.3125 C-12.30902344 1.07466797 -11.49304688 0.83683594 -10.65234375 0.59179688 C-9.86214844 0.37201172 -9.07195312 0.15222656 -8.2578125 -0.07421875 C-7.5373877 -0.27619873 -6.81696289 -0.47817871 -6.07470703 -0.6862793 C-3.75715221 -1.03672151 -2.21426287 -0.71241772 0 0 Z " fill="#306BA4" transform="translate(177,282)"/>
<path d="M0 0 C0.66 0.33 1.32 0.66 2 1 C1.67 1.99 1.34 2.98 1 4 C4.465 3.505 4.465 3.505 8 3 C7 5 7 5 4.3671875 6.1171875 C0.79521878 7.05368974 -2.19115117 7.20018059 -5.875 7.125 C-7.02742187 7.10695313 -8.17984375 7.08890625 -9.3671875 7.0703125 C-10.23601562 7.04710937 -11.10484375 7.02390625 -12 7 C-12 6.67 -12 6.34 -12 6 C-11.38511719 5.98582031 -10.77023438 5.97164063 -10.13671875 5.95703125 C-7.66500527 5.81117256 -5.40322852 5.60506817 -3 5 C-0.8613923 2.61012067 -0.8613923 2.61012067 0 0 Z " fill="#8458D8" transform="translate(199,375)"/>
<path d="M0 0 C2.475 0.99 2.475 0.99 5 2 C5.33 4.64 5.66 7.28 6 10 C6.66 10 7.32 10 8 10 C8.33 12.31 8.66 14.62 9 17 C5.7089159 13.39042389 4.45336079 10.87362847 4 6 C3.34 6 2.68 6 2 6 C1.34 4.02 0.68 2.04 0 0 Z " fill="#0B373A" transform="translate(159,226)"/>
<path d="M0 0 C-0.33 0.99 -0.66 1.98 -1 3 C-1.99 3 -2.98 3 -4 3 C-4 3.66 -4 4.32 -4 5 C-7.3 5.33 -10.6 5.66 -14 6 C-9.27316131 2.45487098 -5.98432891 0 0 0 Z " fill="#215BA5" transform="translate(91,312)"/>
<path d="M0 0 C-1.25618074 3.76854223 -2.66014706 4.07958456 -6 6 C-6.33 6.66 -6.66 7.32 -7 8 C-9.31 8 -11.62 8 -14 8 C-11.72402354 5.50447597 -9.39278822 3.93377014 -6.4375 2.3125 C-5.65246094 1.87550781 -4.86742188 1.43851562 -4.05859375 0.98828125 C-2 0 -2 0 0 0 Z " fill="#0B2835" transform="translate(85,295)"/>
<path d="M0 0 C2.32789515 2.83395931 3.07377893 4.29511572 4 8 C-3.59 8 -11.18 8 -19 8 C-19 7.67 -19 7.34 -19 7 C-12.4 7 -5.8 7 1 7 C0.67 4.69 0.34 2.38 0 0 Z " fill="#094A5D" transform="translate(177,262)"/>
<path d="M0 0 C1.32 0.33 2.64 0.66 4 1 C2 4 2 4 -0.0625 5 C-2.35342991 5.89698316 -2.35342991 5.89698316 -3 9 C-5.5625 10.1875 -5.5625 10.1875 -8 11 C-6.63629701 8.00779732 -5.05091917 5.70973471 -2.875 3.25 C-2.33617188 2.63640625 -1.79734375 2.0228125 -1.2421875 1.390625 C-0.62730469 0.70226562 -0.62730469 0.70226562 0 0 Z " fill="#08AC87" transform="translate(115,207)"/>
<path d="M0 0 C0 1.32 0 2.64 0 4 C-2.97 3.67 -5.94 3.34 -9 3 C-9 2.34 -9 1.68 -9 1 C-9.66 0.67 -10.32 0.34 -11 0 C-7.18243176 -1.37432457 -3.92744671 -0.67975039 0 0 Z " fill="#6B4ADE" transform="translate(136,371)"/>
<path d="M0 0 C0.66 0.33 1.32 0.66 2 1 C1.95875 1.928125 1.9175 2.85625 1.875 3.8125 C1.72863661 7.15809719 1.72863661 7.15809719 4 10 C4.125 12.6875 4.125 12.6875 4 15 C0.84297684 11.09130466 -2 7.1385061 -2 2 C-1.34 2 -0.68 2 0 2 C0 1.34 0 0.68 0 0 Z " fill="#162036" transform="translate(209,316)"/>
<path d="M0 0 C1.65 0 3.3 0 5 0 C4.67 2.31 4.34 4.62 4 7 C2.35 7 0.7 7 -1 7 C-2 4 -2 4 -1.0625 1.8125 C-0.5365625 0.9153125 -0.5365625 0.9153125 0 0 Z " fill="#1C63C1" transform="translate(116,302)"/>
<path d="M0 0 C0 2 0 2 -1.4375 3.5 C-1.953125 3.995 -2.46875 4.49 -3 5 C-3.33 5.66 -3.66 6.32 -4 7 C-6.97 7 -9.94 7 -13 7 C-10.46930592 4.46930592 -9.01985937 3.31623046 -5.9375 1.8125 C-5.24527344 1.46832031 -4.55304688 1.12414062 -3.83984375 0.76953125 C-2 0 -2 0 0 0 Z " fill="#0C2631" transform="translate(98,288)"/>
<path d="M0 0 C-1 2 -1 2 -3.28515625 2.8515625 C-4.65994141 3.23441406 -4.65994141 3.23441406 -6.0625 3.625 C-6.98160156 3.88539063 -7.90070313 4.14578125 -8.84765625 4.4140625 C-9.55792969 4.60742188 -10.26820313 4.80078125 -11 5 C-11.33 4.34 -11.66 3.68 -12 3 C-9.42852703 -2.14294593 -4.93360395 -0.94876999 0 0 Z " fill="#1784DD" transform="translate(160,289)"/>
<path d="M0 0 C0.33 0 0.66 0 1 0 C1.75195822 14.87206266 1.75195822 14.87206266 -3 22 C-3.66 22.33 -4.32 22.66 -5 23 C-4.37017995 16.32390746 -4.37017995 16.32390746 -2.5 14.6875 C-0.21167501 12.11313438 -0.4795686 9.68728573 -0.3125 6.3125 C-0.24675781 5.13300781 -0.18101562 3.95351563 -0.11328125 2.73828125 C-0.07589844 1.83464844 -0.03851563 0.93101562 0 0 Z " fill="#664FCA" transform="translate(219,350)"/>
<path d="M0 0 C0.66 0.33 1.32 0.66 2 1 C0.88200014 2.33920838 -0.24461897 3.67122556 -1.375 5 C-2.00148437 5.7425 -2.62796875 6.485 -3.2734375 7.25 C-4.12808594 8.11625 -4.12808594 8.11625 -5 9 C-5.66 9 -6.32 9 -7 9 C-7 9.99 -7 10.98 -7 12 C-7.66 12 -8.32 12 -9 12 C-7.60090738 7.54834166 -5.39864635 5.14374788 -2 2 C-1.34 1.34 -0.68 0.68 0 0 Z " fill="#C2CBCC" transform="translate(252,330)"/>
<path d="M0 0 C-0.33 1.65 -0.66 3.3 -1 5 C-1.66 5 -2.32 5 -3 5 C-3.33 5.66 -3.66 6.32 -4 7 C-5.37562854 5.71034824 -6.70766393 4.37310707 -8 3 C-8 2.34 -8 1.68 -8 1 C-5.07175348 0.02391783 -3.04386724 -0.08226668 0 0 Z " fill="#1F2A2A" transform="translate(363,289)"/>
<path d="M0 0 C2.35448165 2.55068845 2.98327924 3.71017358 3.1875 7.25 C3.125625 8.1575 3.06375 9.065 3 10 C3.66 10 4.32 10 5 10 C4.67 10.66 4.34 11.32 4 12 C1.69 11.34 -0.62 10.68 -3 10 C-2.67 9.34 -2.34 8.68 -2 8 C-1.34 8 -0.68 8 0 8 C0 5.36 0 2.72 0 0 Z " fill="#6062E0" transform="translate(208,323)"/>
<path d="M0 0 C6.93 0.495 6.93 0.495 14 1 C14 1.66 14 2.32 14 3 C9.37078475 4.0161692 5.65537393 3.83796731 1 3 C0.67 2.01 0.34 1.02 0 0 Z " fill="#072E2E" transform="translate(60,381)"/>
<path d="M0 0 C0.33 1.32 0.66 2.64 1 4 C0.34 4 -0.32 4 -1 4 C-0.7525 4.5775 -0.505 5.155 -0.25 5.75 C-0.1675 6.4925 -0.085 7.235 0 8 C-1.9375 10.25 -1.9375 10.25 -4 12 C-5 9 -5 9 -4.00390625 6.73828125 C-3.52824219 5.93777344 -3.05257812 5.13726562 -2.5625 4.3125 C-2.08941406 3.50425781 -1.61632812 2.69601562 -1.12890625 1.86328125 C-0.75636719 1.24839844 -0.38382812 0.63351562 0 0 Z " fill="#08383A" transform="translate(104,348)"/>
<path d="M0 0 C0.33 0 0.66 0 1 0 C1.08096803 1.45742463 1.13917774 2.91612807 1.1875 4.375 C1.22230469 5.18710937 1.25710937 5.99921875 1.29296875 6.8359375 C1.19628906 7.55007813 1.09960938 8.26421875 1 9 C0.01 9.66 -0.98 10.32 -2 11 C-2.66 10.67 -3.32 10.34 -4 10 C-2.99806563 6.20696275 -2.18975773 3.28463659 0 0 Z " fill="#0A272E" transform="translate(116,322)"/>
<path d="M0 0 C2.53926173 1.82671379 4.9050512 3.66877878 7 6 C7.4375 9.375 7.4375 9.375 7 12 C6.34 10.68 5.68 9.36 5 8 C4.34 8 3.68 8 3 8 C2.67 6.68 2.34 5.36 2 4 C1.34 4 0.68 4 0 4 C0 2.68 0 1.36 0 0 Z " fill="#213255" transform="translate(196,299)"/>
<path d="M0 0 C-3.40858586 3.40858586 -8.32201465 3.93008394 -13 4.125 C-13.66 4.08375 -14.32 4.0425 -15 4 C-10.29915614 -0.70084386 -6.3947358 -1.40684188 0 0 Z " fill="#00B4A3" transform="translate(145,236)"/>
<path d="M0 0 C0.33 0 0.66 0 1 0 C1.12117188 0.74765625 1.24234375 1.4953125 1.3671875 2.265625 C1.53476563 3.25046875 1.70234375 4.2353125 1.875 5.25 C2.03742188 6.22453125 2.19984375 7.1990625 2.3671875 8.203125 C2.94855848 10.77264117 3.70840265 12.72071056 5 15 C4.01 15.495 4.01 15.495 3 16 C2.01 14.02 1.02 12.04 0 10 C-0.99 10.495 -0.99 10.495 -2 11 C-1.855625 10.29875 -1.71125 9.5975 -1.5625 8.875 C-0.98521625 5.92443859 -0.48304859 2.96729849 0 0 Z " fill="#21274B" transform="translate(117,358)"/>
<path d="M0 0 C1.98 0.495 1.98 0.495 4 1 C4.33 3.31 4.66 5.62 5 8 C4.01 7.01 3.02 6.02 2 5 C2 5.66 2 6.32 2 7 C0 6 0 6 -0.6875 4.0625 C-1 2 -1 2 0 0 Z " fill="#554FE3" transform="translate(209,334)"/>
<path d="M0 0 C5.15171623 -0.09038099 9.91913204 0.15318867 15 1 C15 1.66 15 2.32 15 3 C14.37351563 2.90460938 13.74703125 2.80921875 13.1015625 2.7109375 C12.28429687 2.60007812 11.46703125 2.48921875 10.625 2.375 C9.40683594 2.20097656 9.40683594 2.20097656 8.1640625 2.0234375 C7.44992188 2.01570313 6.73578125 2.00796875 6 2 C5.34 2.66 4.68 3.32 4 4 C2.68 2.68 1.36 1.36 0 0 Z " fill="#3A5ED6" transform="translate(148,322)"/>
<path d="M0 0 C5.28 0.66 10.56 1.32 16 2 C16 2.33 16 2.66 16 3 C14.10590022 3.22354607 12.2095652 3.42819951 10.3125 3.625 C8.72888672 3.79902344 8.72888672 3.79902344 7.11328125 3.9765625 C3.86283654 4.0010326 1.89769204 3.40852563 -1 2 C-0.67 1.34 -0.34 0.68 0 0 Z " fill="#2A1F4A" transform="translate(182,380)"/>
<path d="M0 0 C3.42931954 3.7559214 4.56429083 8.23466745 6 13 C5.01 12.34 4.02 11.68 3 11 C3 10.01 3 9.02 3 8 C2.01 8 1.02 8 0 8 C0 5.36 0 2.72 0 0 Z " fill="#5062C6" transform="translate(200,307)"/>
<path d="M0 0 C0.33 0.99 0.66 1.98 1 3 C0.34 3.99 -0.32 4.98 -1 6 C0.32 5.67 1.64 5.34 3 5 C3 4.34 3 3.68 3 3 C4.32 2.67 5.64 2.34 7 2 C6.4375 3.9375 6.4375 3.9375 5 6 C1.375 6.75 1.375 6.75 -2 7 C-1.125 1.125 -1.125 1.125 0 0 Z " fill="#0C2B35" transform="translate(64,301)"/>
<path d="M0 0 C2.475 0.495 2.475 0.495 5 1 C4.01 1.495 4.01 1.495 3 2 C3.34786708 3.97536745 3.34786708 3.97536745 4 6 C4.66 6.33 5.32 6.66 6 7 C6.59355614 9.64860427 6.74209269 12.29197322 7 15 C4.08680402 13.54340201 3.98288741 11.6538411 2.9375 8.625 C2.59589844 7.64789063 2.25429687 6.67078125 1.90234375 5.6640625 C1.26340405 3.77766911 0.62981934 1.88945801 0 0 Z " fill="#0C373E" transform="translate(168,243)"/>
<path d="M0 0 C0.66 0.33 1.32 0.66 2 1 C1.01 2.485 1.01 2.485 0 4 C1.32 4.66 2.64 5.32 4 6 C-0.29 5.67 -4.58 5.34 -9 5 C-6.06626269 3.04417512 -3.21783702 1.43775696 0 0 Z " fill="#2A254B" transform="translate(209,377)"/>
<path d="M0 0 C1.32 0.33 2.64 0.66 4 1 C-0.29 3.31 -4.58 5.62 -9 8 C-8.67 6.68 -8.34 5.36 -8 4 C-5.10888212 2.47835901 -3.28176588 2 0 2 C0 1.34 0 0.68 0 0 Z " fill="#0B253C" transform="translate(68,320)"/>
<path d="M0 0 C1.67542976 0.28604898 3.34385343 0.61781233 5 1 C5 1.99 5 2.98 5 4 C2.69 4.33 0.38 4.66 -2 5 C-1.125 1.125 -1.125 1.125 0 0 Z " fill="#8B4AF6" transform="translate(202,374)"/>
<path d="M0 0 C3 0 3 0 5 1 C3.47005208 2.20442708 1.94010417 3.40885417 0.41015625 4.61328125 C-1.27155077 6.05683091 -1.27155077 6.05683091 -2 9 C-2.66 9 -3.32 9 -4 9 C-2.25 2.25 -2.25 2.25 0 0 Z " fill="#09717B" transform="translate(79,274)"/>
<path d="M0 0 C0.33 0.99 0.66 1.98 1 3 C0.01 3 -0.98 3 -2 3 C-2.33 3.66 -2.66 4.32 -3 5 C-2.34 5 -1.68 5 -1 5 C-0.67 6.98 -0.34 8.96 0 11 C-3.44216672 8.3401439 -3.99504674 5.09711714 -5 1 C-3 0 -3 0 0 0 Z " fill="#0A463F" transform="translate(159,215)"/>
<path d="M0 0 C1.65 0 3.3 0 5 0 C3.86500606 3.29148243 3.00716624 3.9959869 -0.125 5.75 C-1.548125 6.36875 -1.548125 6.36875 -3 7 C-3 6.01 -3 5.02 -3 4 C-1.68 3.67 -0.36 3.34 1 3 C0.67 2.01 0.34 1.02 0 0 Z " fill="#09AC90" transform="translate(86,372)"/>
<path d="M0 0 C-3.45680903 2.76544722 -7.14341602 4.84921278 -11 7 C-8.38092426 1.15744643 -6.57566735 -0.43837782 0 0 Z " fill="#C6D0D0" transform="translate(506,203)"/>
<path d="M0 0 C0.88336837 2.4667645 1.1312406 3.63859372 0.22265625 6.140625 C-0.16019531 6.83671875 -0.54304688 7.5328125 -0.9375 8.25 C-1.31777344 8.95640625 -1.69804688 9.6628125 -2.08984375 10.390625 C-2.39019531 10.92171875 -2.69054687 11.4528125 -3 12 C-3.66 12 -4.32 12 -5 12 C-3.68938409 7.76570244 -2.05643741 3.92592596 0 0 Z " fill="#0D4644" transform="translate(98,359)"/>
<path d="M0 0 C0.33 0 0.66 0 1 0 C1.125 2.875 1.125 2.875 1 6 C0.34 6.66 -0.32 7.32 -1 8 C-1.70710678 9.64991582 -2.37943989 11.31562256 -3 13 C-3.66 13 -4.32 13 -5 13 C-3.58192622 8.52761347 -1.88695626 4.28853694 0 0 Z " fill="#3D4948" transform="translate(369,345)"/>
<path d="M0 0 C1.051875 -0.02126953 1.051875 -0.02126953 2.125 -0.04296875 C4 0.1875 4 0.1875 6 2.1875 C2.7 2.1875 -0.6 2.1875 -4 2.1875 C-4 2.8475 -4 3.5075 -4 4.1875 C-5.65 4.1875 -7.3 4.1875 -9 4.1875 C-6.04559382 1.09880263 -4.29437484 0.03947036 0 0 Z " fill="#3D448E" transform="translate(132,346.8125)"/>
<path d="M0 0 C1.32 0 2.64 0 4 0 C4.66 2.97 5.32 5.94 6 9 C5.01 9.495 5.01 9.495 4 10 C3.32845067 8.71086513 2.66291141 7.41859796 2 6.125 C1.62875 5.40570313 1.2575 4.68640625 0.875 3.9453125 C0 2 0 2 0 0 Z " fill="#1C2249" transform="translate(214,334)"/>
<path d="M0 0 C0.33 0.66 0.66 1.32 1 2 C1.66 2.33 2.32 2.66 3 3 C2 4 2 4 -1.5625 4.0625 C-2.696875 4.041875 -3.83125 4.02125 -5 4 C-5 4.66 -5 5.32 -5 6 C-5.99 6 -6.98 6 -8 6 C-7.67 5.01 -7.34 4.02 -7 3 C-4 1.875 -4 1.875 -1 1 C-0.67 0.67 -0.34 0.34 0 0 Z " fill="#186DB8" transform="translate(114,307)"/>
<path d="M0 0 C0.66 1.32 1.32 2.64 2 4 C-1.63 3.01 -5.26 2.02 -9 1 C-9 0.67 -9 0.34 -9 0 C-5.69978999 -0.8250525 -3.17546695 -1.42348518 0 0 Z " fill="#3F494A" transform="translate(334,276)"/>
<path d="M0 0 C-1.6875 2.0625 -1.6875 2.0625 -4 4 C-6.75 3.75 -6.75 3.75 -9 3 C-9 2.34 -9 1.68 -9 1 C-5.8035914 -0.06546953 -3.34252724 -0.07427838 0 0 Z " fill="#273031" transform="translate(339,381)"/>
<path d="M0 0 C2.4375 1 2.4375 1 5 3 C5.76381481 5.72714162 5.85942648 8.14167178 6 11 C5.34 10.01 4.68 9.02 4 8 C3.29875 6.989375 2.5975 5.97875 1.875 4.9375 C0 2 0 2 0 0 Z " fill="#4157BD" transform="translate(145,321)"/>
<path d="M0 0 C0.66 0.66 1.32 1.32 2 2 C-2.51617599 2.07654536 -6.59085217 2.10228696 -11 1 C-11 0.67 -11 0.34 -11 0 C-3.2797546 -1.33619632 -3.2797546 -1.33619632 0 0 Z " fill="#5279F3" transform="translate(169,322)"/>
<path d="M0 0 C0.33 0 0.66 0 1 0 C1.3125 3.3125 1.3125 3.3125 1 7 C-1.5 8.9375 -1.5 8.9375 -4 10 C-2.66666667 6.66666667 -1.33333333 3.33333333 0 0 Z " fill="#0F6E7B" transform="translate(71,289)"/>
<path d="M0 0 C0 4.24645065 -1.81750806 6.38524772 -4 10 C-5 7 -5 7 -4.25 4.4375 C-3 2 -3 2 0 0 Z " fill="#092C29" transform="translate(91,248)"/>
<path d="M0 0 C1.0326802 2.78823655 1.04509293 3.8677274 0.0625 6.75 C-0.288125 7.4925 -0.63875 8.235 -1 9 C-1.66 8.67 -2.32 8.34 -3 8 C-3.36923077 3.44615385 -3.36923077 3.44615385 -1.5 1.1875 C-1.005 0.795625 -0.51 0.40375 0 0 Z " fill="#6B55DF" transform="translate(165,348)"/>
<path d="M0 0 C-1 3 -1 3 -4 5 C-6.6875 5.125 -6.6875 5.125 -9 5 C-6.45523312 2.20075644 -3.92372883 0 0 0 Z " fill="#2960A3" transform="translate(100,307)"/>
<path d="M0 0 C1.98 0 3.96 0 6 0 C6.33 1.65 6.66 3.3 7 5 C5.35 4.67 3.7 4.34 2 4 C2.66 3.67 3.32 3.34 4 3 C4 2.34 4 1.68 4 1 C2.68 0.67 1.36 0.34 0 0 Z " fill="#2479E9" transform="translate(179,283)"/>
<path d="M0 0 C1.32 0 2.64 0 4 0 C3.75 1.875 3.75 1.875 3 4 C0.9375 5.25 0.9375 5.25 -1 6 C-0.67 4.02 -0.34 2.04 0 0 Z " fill="#7753DE" transform="translate(210,371)"/>
<path d="M0 0 C0.66 0.33 1.32 0.66 2 1 C1.55090939 2.48199902 1.09043436 3.96055236 0.625 5.4375 C0.36976562 6.26121094 0.11453125 7.08492188 -0.1484375 7.93359375 C-1 10 -1 10 -3 11 C-2.44894091 7.0507432 -1.61064629 3.65079826 0 0 Z " fill="#099B93" transform="translate(106,338)"/>
<path d="M0 0 C0.185625 0.9590625 0.185625 0.9590625 0.375 1.9375 C0.684375 2.9584375 0.684375 2.9584375 1 4 C1.66 4.33 2.32 4.66 3 5 C2.34 5 1.68 5 1 5 C1 5.66 1 6.32 1 7 C-0.32 7.33 -1.64 7.66 -3 8 C-1.125 2.25 -1.125 2.25 0 0 Z " fill="#196773" transform="translate(66,299)"/>
<path d="M0 0 C1.32 0 2.64 0 4 0 C4 0.66 4 1.32 4 2 C5.65 2.33 7.3 2.66 9 3 C9 3.66 9 4.32 9 5 C5.22454612 3.90931332 2.52956528 3.0916909 0 0 Z " fill="#7653BF" transform="translate(174,375)"/>
<path d="M0 0 C2.31 0.66 4.62 1.32 7 2 C7 2.99 7 3.98 7 5 C4.69 4.34 2.38 3.68 0 3 C0 2.01 0 1.02 0 0 Z " fill="#5551DC" transform="translate(133,349)"/>
<path d="M0 0 C2.64465038 3.1254959 3.84414715 6.08788267 5 10 C2 9 2 9 0.8125 6.6875 C0 4 0 4 0 0 Z " fill="#202955" transform="translate(149,329)"/>
<path d="M0 0 C2.62187494 1.04874998 3.79371361 1.64931313 5.25 4.125 C5.4975 4.74375 5.745 5.3625 6 6 C4.68 6 3.36 6 2 6 C1.34 4.02 0.68 2.04 0 0 Z " fill="#C8D2D3" transform="translate(274,333)"/>
<path d="M0 0 C2.125 0.9375 2.125 0.9375 4 2 C2.02 3.32 0.04 4.64 -2 6 C-2 4.35 -2 2.7 -2 1 C-1.34 0.67 -0.68 0.34 0 0 Z " fill="#0E2332" transform="translate(54,327)"/>
<path d="M0 0 C3.05882701 1.52941351 3.68951234 3.94219546 5 7 C4.67 7.66 4.34 8.32 4 9 C3.01 8.67 2.02 8.34 1 8 C0.67 5.36 0.34 2.72 0 0 Z " fill="#4362B0" transform="translate(191,290)"/>
<path d="M0 0 C2.15377564 2.62198774 3.40072174 4.64404172 4 8 C2.35 8 0.7 8 -1 8 C-0.34 7.67 0.32 7.34 1 7 C0.67 4.69 0.34 2.38 0 0 Z " fill="#1E5F70" transform="translate(177,262)"/>
<path d="M0 0 C1.32 0 2.64 0 4 0 C3.67 0.99 3.34 1.98 3 3 C1.68 3 0.36 3 -1 3 C-1 3.66 -1 4.32 -1 5 C-1.66 5 -2.32 5 -3 5 C-1.125 1.125 -1.125 1.125 0 0 Z " fill="#32393D" transform="translate(289,242)"/>
<path d="M0 0 C0.8125 1.6875 0.8125 1.6875 1 4 C-1.4375 6.75 -1.4375 6.75 -4 9 C-2.94124926 5.59687262 -1.99097846 2.98646769 0 0 Z " fill="#049976" transform="translate(98,236)"/>
<path d="M0 0 C0.99 0 1.98 0 3 0 C3.33 2.31 3.66 4.62 4 7 C1.49962266 4.82575883 0.56371414 3.26954202 0 0 Z " fill="#347CBA" transform="translate(137,305)"/>
<path d="M0 0 C0.86625 0.3403125 0.86625 0.3403125 1.75 0.6875 C1.75 1.3475 1.75 2.0075 1.75 2.6875 C-0.89 2.6875 -3.53 2.6875 -6.25 2.6875 C-2.80384615 -0.38942308 -2.80384615 -0.38942308 0 0 Z " fill="#295592" transform="translate(113.25,301.3125)"/>
<path d="M0 0 C1.32 0 2.64 0 4 0 C3.67 1.65 3.34 3.3 3 5 C2.34 5 1.68 5 1 5 C0.67 3.35 0.34 1.7 0 0 Z " fill="#148AEE" transform="translate(134,296)"/>
</svg>
